<svg width="65" height="65" viewBox="0 0 65 65" fill="none" xmlns="http://www.w3.org/2000/svg">
<g clip-path="url(#clip0)">
<circle cx="32.5" cy="32.5001" r="11.3961" fill="#F7D33C"/>
<path d="M6.97887 50.0322C6.97803 50.0322 6.97719 50.0324 6.97635 50.0324C6.97698 50.0324 6.97782 50.0322 6.97887 50.0322Z" fill="#FF005C"/>
<path d="M58.0247 14.9675C58.024 14.9675 58.0232 14.9677 58.0222 14.9677C58.023 14.9677 58.0238 14.9675 58.0247 14.9675Z" fill="#FF005C"/>
<path d="M14.9675 58.0244L14.9677 58.0225L14.9675 58.0244Z" fill="#FF005C"/>
<path d="M50.0328 6.97632L50.0324 6.97938L50.0328 6.97632Z" fill="#FF005C"/>
<path d="M64.1933 34.0203L61.1767 32.4994L64.1933 30.9785C64.7085 30.7188 65.0174 30.1982 64.9995 29.62C64.9817 29.0476 64.6451 28.5524 64.1109 28.3234C62.0665 27.4488 58.9622 26.5712 54.7132 26.5471C58.3802 24.4021 60.6306 22.0902 61.9638 20.3108C61.9664 20.3073 61.969 20.3039 61.9704 20.3022C62.312 19.8455 62.356 19.2483 62.0851 18.7437C61.8117 18.2341 61.2827 17.9366 60.7077 17.9703L57.3348 18.1613L59.1867 15.3359C59.503 14.8532 59.5102 14.248 59.2056 13.7563C58.9041 13.2695 58.3646 13.0095 57.806 13.0757C57.8034 13.0759 57.7904 13.0774 57.7876 13.0778C55.5799 13.3427 52.4515 14.138 48.7595 16.2425C50.8613 12.5549 51.6548 9.42886 51.9218 7.21424C51.9224 7.20992 51.9229 7.2056 51.9234 7.20116C51.9908 6.63487 51.7304 6.09562 51.2435 5.79414C50.7516 5.4896 50.1464 5.49684 49.664 5.81305L46.8385 7.66488L47.0297 4.2919C47.0622 3.71571 46.7658 3.18802 46.256 2.91446C45.7515 2.64369 45.1545 2.68774 44.6889 3.03594C43.6897 3.78452 42.7116 4.68403 41.782 5.70934C41.4289 6.09892 41.4583 6.70101 41.848 7.05416C42.2374 7.40744 42.8397 7.37786 43.1929 6.98828C43.8014 6.31688 44.4303 5.70667 45.0733 5.16361L44.8308 9.44232C44.8105 9.80119 44.9941 10.1409 45.3053 10.3206C45.6164 10.5005 46.0025 10.4895 46.3032 10.2923L49.8887 7.94237C49.3837 10.7756 47.9456 14.865 44.1529 19.6247L38.037 26.5992C37.1394 25.7564 36.051 25.1152 34.8434 24.7494L37.8239 15.9706C38.6159 13.9552 39.5461 12.0953 40.589 10.4419C40.8697 9.99718 40.7365 9.40919 40.2919 9.12865C39.8468 8.84811 39.2592 8.98114 38.9787 9.42595C38.7986 9.71118 38.6232 10.0042 38.4498 10.3004C38.4279 6.04535 37.5519 2.9354 36.6773 0.891128C36.6762 0.888462 36.6733 0.881481 36.6721 0.878815C36.4473 0.354544 35.9521 0.0178944 35.3796 0.00024942C34.8056 -0.0171416 34.281 0.2912 34.0212 0.806458L32.5002 3.82285L30.9792 0.806331C30.7193 0.290947 30.1972 -0.0177763 29.6207 -4.46406e-06C29.0482 0.0177674 28.553 0.354418 28.3291 0.876657C28.3287 0.877545 28.3244 0.887701 28.324 0.888716C27.4495 2.93299 26.5736 6.03926 26.55 10.2888C24.4037 6.619 22.0889 4.36731 20.3027 3.02909C19.8462 2.68761 19.2488 2.64344 18.7445 2.9142C18.2347 3.18764 17.9383 3.71546 17.9708 4.29178L18.1619 7.6645L15.3365 5.81267C14.8538 5.49633 14.2487 5.48909 13.7569 5.79363C13.2701 6.09511 13.0095 6.63436 13.077 7.20065C13.0774 7.20433 13.0779 7.20789 13.0784 7.21157C13.3432 9.41973 14.1355 12.5474 16.2399 16.2401C12.5476 14.1361 9.41755 13.3417 7.20203 13.076C6.63663 13.0086 6.0965 13.269 5.79488 13.7558C5.49035 14.2476 5.49746 14.8528 5.8138 15.3353L7.66563 18.1608L4.29278 17.9698C3.72027 17.9373 3.18902 18.2336 2.91533 18.7432C2.64444 19.2478 2.68849 19.845 3.02869 20.2997C3.03072 20.3023 3.03364 20.3063 3.03669 20.3103C4.36983 22.0898 6.62051 24.4015 10.2876 26.5467C6.03874 26.5706 2.93564 27.4478 0.895303 28.3205C0.893145 28.3214 0.88172 28.3263 0.879562 28.3272C0.355292 28.552 0.0186417 29.0471 0.00086986 29.6196C-0.0171559 30.1978 0.291821 30.7184 0.807078 30.9782L3.8236 32.499L0.807078 34.0203C0.291821 34.28 -0.017029 34.8006 0.00086986 35.3788C0.0186417 35.9512 0.355292 36.4464 0.889464 36.6754C2.93412 37.5502 6.04102 38.4262 10.2909 38.4501C6.62191 40.5957 4.37009 42.9082 3.03656 44.688C3.03389 44.6916 3.03136 44.695 3.02996 44.6966C2.68836 45.1534 2.64431 45.7505 2.9152 46.2551C3.18864 46.7649 3.71697 47.0616 4.29265 47.0286L7.6655 46.8375L5.81367 49.663C5.49733 50.1456 5.49009 50.7509 5.79475 51.2425C6.06514 51.679 6.52645 51.9335 7.02178 51.9335C7.0789 51.9335 7.13653 51.9301 7.19429 51.9232C7.19696 51.9229 7.2099 51.9214 7.2127 51.921C9.42034 51.6562 12.5481 50.8623 16.2397 48.7584C14.1389 52.4451 13.3454 55.5702 13.0786 57.7845C13.0779 57.7888 13.0774 57.7931 13.0769 57.7976C13.0095 58.3639 13.27 58.9031 13.7568 59.2046C14.2487 59.5091 14.854 59.5019 15.3363 59.1857L18.1618 57.3338L17.9706 60.7068C17.9382 61.283 18.2346 61.8107 18.7444 62.0843C18.963 62.2016 19.1988 62.2598 19.434 62.2598C19.7416 62.2598 20.0477 62.1602 20.3115 61.9629C22.0921 60.629 24.406 58.3777 26.5524 54.706C26.5551 55.1974 26.5684 55.6832 26.5943 56.1619C26.6228 56.6871 27.073 57.0904 27.5964 57.0613C28.1214 57.0329 28.5242 56.5843 28.4958 56.0592C28.3963 54.2163 28.4789 52.2638 28.7395 50.245C28.7989 50.0997 31.1675 43.1723 32.0524 40.5833C32.2007 40.5915 32.8001 40.5915 32.9487 40.5833C33.9255 43.4418 36.2038 50.1054 36.2613 50.2459C36.9892 55.8639 36.2163 59.8784 35.2807 62.461L33.3504 58.6327C33.1886 58.3117 32.8598 58.1092 32.5003 58.1092C32.1408 58.1092 31.812 58.3117 31.6502 58.6327L29.7206 62.4595C29.473 61.7714 29.2586 61.0409 29.0807 60.2776C28.9615 59.7655 28.4495 59.4474 27.9374 59.5665C27.4253 59.6858 27.1069 60.1977 27.2261 60.7097C27.5092 61.9244 27.8787 63.0686 28.3233 64.1079C28.3244 64.1105 28.3273 64.1175 28.3285 64.1202C28.5533 64.6444 29.0485 64.9811 29.621 64.9987C30.1981 65.0176 30.7196 64.7078 30.9794 64.1925L32.5003 61.176L34.0212 64.1924C34.2738 64.6934 34.7731 64.9994 35.332 64.9994C35.3479 64.9994 35.3637 64.9991 35.3796 64.9986C35.9521 64.9808 36.4473 64.6442 36.6712 64.1219C36.6716 64.1211 36.6759 64.1109 36.6763 64.1099C37.5508 62.0656 38.427 58.9596 38.4508 54.7105C40.597 58.3799 42.9116 60.6313 44.6978 61.9694C44.9556 62.1623 45.2583 62.2603 45.5639 62.2603C45.7992 62.2603 46.0365 62.2022 46.256 62.0843C46.7658 61.8108 47.0622 61.283 47.0297 60.7067L46.8385 57.334L49.664 59.1858C50.1466 59.5021 50.7518 59.5094 51.2435 59.2048C51.7304 58.9034 51.991 58.3641 51.9234 57.7978C51.9231 57.7941 51.9225 57.7906 51.922 57.7869C51.6572 55.5787 50.865 52.4509 48.7604 48.7582C52.4528 50.8621 55.5829 51.6567 57.7984 51.9224C57.8577 51.9295 57.9166 51.933 57.9751 51.933C58.475 51.933 58.9356 51.6786 59.2056 51.2427C59.5101 50.7509 59.503 50.1456 59.1867 49.6631L57.3348 46.8377L60.7077 47.0287C61.2824 47.0627 61.8115 46.765 62.0851 46.2552C62.356 45.7506 62.312 45.1535 61.9718 44.6988C61.9697 44.6961 61.9668 44.6922 61.9638 44.6881C60.6303 42.9083 58.3786 40.5958 54.7097 38.4502C58.9586 38.4265 62.0648 37.5508 64.105 36.678C64.1072 36.6771 64.1186 36.6721 64.1208 36.6712C64.6451 36.4464 64.9817 35.9514 64.9995 35.3788C65.0174 34.8006 64.7084 34.28 64.1933 34.0203ZM45.9886 20.369C50.4891 16.9304 54.3521 15.5922 57.0573 15.1107L54.7071 18.6965C54.51 18.9971 54.4991 19.3831 54.6788 19.6944C54.8586 20.0057 55.1994 20.1905 55.5571 20.1689L59.8372 19.9265C58.0635 22.0324 54.9735 24.7067 49.7494 26.8833C49.5835 26.9059 41.8072 28.4346 39.7218 28.8446C39.5863 28.5782 39.437 28.3201 39.274 28.0717C41.3299 25.7181 45.897 20.4874 45.9886 20.369ZM29.7196 2.53769L31.6499 6.36601C31.8118 6.68705 32.1405 6.88952 32.5 6.88952C32.8595 6.88952 33.1883 6.68705 33.3502 6.36601L35.2803 2.5382C36.2177 5.12807 36.9888 9.14299 36.2603 14.7589C36.2014 14.9027 33.8548 21.7639 32.9481 24.4154C32.7998 24.4073 32.2005 24.4073 32.0522 24.4154C31.1397 21.7457 28.7982 14.8973 28.7393 14.7532C28.0114 9.13512 28.7842 5.12033 29.7196 2.53769ZM15.1114 7.94199L18.6973 10.2923C18.9981 10.4896 19.3841 10.5004 19.6952 10.3206C20.0064 10.1409 20.19 9.80119 20.1697 9.44232L19.9272 5.16235C22.1284 7.01621 24.9508 10.3063 27.1764 15.9707L30.1568 24.7495C28.9492 25.1153 27.8608 25.7565 26.9633 26.5993L20.8474 19.6248C17.052 14.8613 15.6146 10.7699 15.1114 7.94199ZM5.16347 19.9265L9.44307 20.1688C9.80155 20.1894 10.1416 20.0054 10.3214 19.6943C10.5011 19.383 10.4902 18.997 10.2931 18.6964L7.94312 15.111C10.6537 15.5942 14.5147 16.933 19.0116 20.369C19.1072 20.4925 23.8898 25.9703 25.7255 28.0723C25.5627 28.3207 25.4135 28.5786 25.2782 28.8449C23.0479 28.4062 15.4143 26.9056 15.2507 26.8833C10.0312 24.7086 6.9418 22.0367 5.16347 19.9265ZM2.53946 35.2793L6.36676 33.3494C6.68766 33.1876 6.89014 32.8588 6.89014 32.4993C6.89014 32.1398 6.68766 31.811 6.36676 31.6492L2.53895 29.7193C5.2451 28.7398 9.50565 27.9408 15.5241 28.8453L24.6178 30.6537C24.479 31.247 24.4031 31.8643 24.4031 32.4994C24.4031 33.1345 24.4788 33.7518 24.6178 34.3452L15.5241 36.1536C9.51085 37.0573 5.25208 36.2601 2.53946 35.2793ZM7.94299 49.8881L10.2932 46.3022C10.4903 46.0016 10.5013 45.6156 10.3215 45.3043C10.1508 45.0087 9.83583 44.8283 9.49714 44.8283C9.47925 44.8283 9.46122 44.8288 9.44319 44.8298L5.16309 45.0723C6.93711 42.966 10.0275 40.2915 15.2524 38.1148C15.3993 38.0949 22.1506 36.7675 25.2776 36.1522C25.4131 36.4191 25.5625 36.6776 25.7258 36.9265C23.8566 39.0669 19.1068 44.507 19.0117 44.6297C14.5111 48.0684 10.6481 49.4066 7.94299 49.8881ZM27.1765 49.0282C24.9526 54.6879 22.1332 57.9772 19.9273 59.836L20.1698 55.5565C20.1901 55.1977 20.0065 54.858 19.6953 54.6782C19.5478 54.593 19.3834 54.5506 19.2192 54.5506C19.0372 54.5506 18.8556 54.6028 18.6974 54.7065L15.1119 57.0565C15.6169 54.2233 17.055 50.1338 20.8477 45.3741L26.9636 38.3997C27.8612 39.2425 28.9495 39.8836 30.1571 40.2495L27.1765 49.0282ZM26.3073 32.4993C26.3073 29.0846 29.0854 26.3064 32.5002 26.3064C35.9149 26.3064 38.693 29.0846 38.693 32.4993C38.693 35.914 35.9149 38.6922 32.5002 38.6922C29.0854 38.6922 26.3073 35.9142 26.3073 32.4993ZM49.8888 57.0567L46.303 54.7064C46.0021 54.5091 45.6161 54.4983 45.3051 54.6781C44.9938 54.8578 44.8102 55.1975 44.8306 55.5564L45.073 59.8364C42.8718 57.9825 40.0494 54.6924 37.8239 49.028L34.8434 40.2492C36.051 39.8834 37.1394 39.2422 38.037 38.3994L44.1529 45.3739C47.9482 50.1374 49.3856 54.2288 49.8888 57.0567ZM59.8367 45.0721L55.5571 44.8298C55.197 44.8085 54.8585 44.9931 54.6788 45.3043C54.4991 45.6156 54.51 46.0016 54.7071 46.3022L57.0571 49.8876C54.3465 49.4044 50.4856 48.0656 45.9886 44.6296C45.8882 44.4999 40.8146 38.6887 39.2751 36.9256C39.4379 36.6772 39.5871 36.4193 39.7224 36.1529C42.479 36.6952 49.5938 38.0938 49.7479 38.1148C54.9685 40.2896 58.0583 42.9617 59.8367 45.0721ZM49.4761 36.1535L40.3824 34.345C40.5213 33.7517 40.5972 33.1344 40.5972 32.4993C40.5972 31.8642 40.5214 31.2469 40.3824 30.6536L49.4761 28.8451C55.4895 27.9414 59.7481 28.7385 62.4608 29.7193L58.6335 31.6492C58.3125 31.811 58.1101 32.1398 58.1101 32.4993C58.1101 32.8588 58.3125 33.1876 58.6335 33.3494L62.4613 35.2795C59.755 36.2589 55.4943 37.0578 49.4761 36.1535Z" fill="#FF005C"/>
</g>
<defs>
<clipPath id="clip0">
<rect width="65" height="65" fill="white"/>
</clipPath>
</defs>
</svg>
