<svg width="65" height="65" viewBox="0 0 65 65" fill="none" xmlns="http://www.w3.org/2000/svg">
<circle cx="32.3961" cy="22.3961" r="11.3961" fill="#F7D33C"/>
<path d="M32.4999 18.1611C30.0859 18.1611 28.1219 20.1251 28.1219 22.5391C28.1219 24.9531 30.0859 26.9171 32.4999 26.9171C34.9139 26.9171 36.8777 24.9531 36.8777 22.5391C36.8777 20.1251 34.9138 18.1611 32.4999 18.1611ZM32.4999 25.0128C31.1359 25.0128 30.0262 23.9031 30.0262 22.5391C30.0262 21.1751 31.1359 20.0654 32.4999 20.0654C33.8638 20.0654 34.9734 21.1751 34.9734 22.5391C34.9734 23.9031 33.8637 25.0128 32.4999 25.0128Z" fill="#FF005C"/>
<path d="M50.1452 15.3557C46.2893 15.3557 44.3137 20.1677 47.0277 22.8817C47.8604 23.7144 48.9676 24.173 50.1452 24.173C52.5468 24.173 54.5539 22.1629 54.5539 19.7644C54.5539 17.3606 52.5464 15.3557 50.1452 15.3557ZM50.1452 22.2688C47.9559 22.2688 46.8319 19.536 48.3743 17.9935C48.8474 17.5205 49.4763 17.26 50.1452 17.26C51.5098 17.26 52.6496 18.4017 52.6496 19.7644C52.6496 21.1302 51.5097 22.2688 50.1452 22.2688Z" fill="#FF005C"/>
<path d="M14.8548 15.3557C12.4518 15.3557 10.4461 17.3636 10.446 19.7643C10.4458 22.1687 12.4526 24.173 14.8547 24.1731C17.2605 24.1731 19.2632 22.1678 19.2634 19.7645C19.2634 17.3612 17.2557 15.3558 14.8548 15.3557ZM14.8547 22.2687C13.4897 22.2687 12.3502 21.128 12.3501 19.7645C12.3501 19.1008 12.6393 18.4715 13.0997 18.0098C13.5552 17.5529 14.1782 17.26 14.8545 17.26C16.22 17.26 17.3589 18.402 17.3589 19.7643C17.3591 21.124 16.2115 22.2687 14.8547 22.2687Z" fill="#FF005C"/>
<path d="M26.275 5.27563C24.1823 5.27563 22.4798 6.9782 22.4798 9.07077C22.4798 11.1636 24.1823 12.866 26.275 12.866C28.3677 12.866 30.0702 11.1635 30.0702 9.07077C30.0702 6.9782 28.3677 5.27563 26.275 5.27563ZM26.275 10.9619C25.2324 10.9619 24.3841 10.1136 24.3841 9.0709C24.3841 8.02823 25.2324 7.18006 26.275 7.18006C27.3176 7.18006 28.1659 8.02836 28.1659 9.0709C28.1659 10.1136 27.3176 10.9619 26.275 10.9619Z" fill="#FF005C"/>
<path d="M59.1982 18.6186C59.8909 16.8365 59.7265 14.9232 58.7192 13.2793C57.5905 11.4375 55.5862 10.2934 53.4883 10.2934C52.7409 10.2934 52.0043 10.4336 51.2908 10.7113C50.3237 9.92558 49.171 9.45953 47.9596 9.36508C47.8268 8.15001 47.2699 7.04603 46.3496 6.19531C46.6247 4.78626 46.3187 3.35931 45.4746 2.19743C44.475 0.821514 42.8817 0 41.2128 0C40.3468 0 39.498 0.225342 38.7249 0.656475C37.9519 0.225469 37.1032 0.000126953 36.2374 0.000126953C34.8226 0.000126953 33.4782 0.584873 32.498 1.58019C31.51 0.580557 30.1639 0 28.763 0C27.8971 0 27.0483 0.225342 26.275 0.656475C25.5018 0.225342 24.653 0 23.7871 0C22.118 0 20.5248 0.821387 19.5251 2.1973C18.681 3.35905 18.3751 4.78626 18.6502 6.19544C17.7299 7.04615 17.1729 8.15001 17.0402 9.36508C15.8289 9.45953 14.676 9.92558 13.7089 10.7113C12.9954 10.4336 12.2588 10.2934 11.5115 10.2934C9.41345 10.2934 7.40899 11.4375 6.28025 13.2793C5.273 14.9231 5.10872 16.8365 5.8015 18.6186C4.38369 20.3628 4.03736 22.6689 4.91372 24.7845C5.34701 25.8306 6.03548 26.7085 6.88543 27.3571C7.62455 30.0917 8.58914 32.6944 9.75914 35.0954C9.98956 35.5682 10.5597 35.7646 11.0322 35.5342C11.5049 35.3039 11.7014 34.7339 11.4711 34.2612C10.5812 32.435 9.8136 30.485 9.18036 28.4441C9.61226 28.5419 10.0577 28.5904 10.5121 28.5906C10.5149 28.5906 10.7592 28.5878 10.8782 28.581C10.8851 28.5915 10.8927 28.6014 10.8996 28.6119C11.5258 29.5667 12.4118 30.3441 13.454 30.815C16.6028 32.2375 20.4671 30.7106 21.71 27.4793C21.7915 27.2674 21.8629 27.0503 21.9211 26.8309C22.4651 26.6864 22.9929 26.4685 23.4778 26.1826C23.4753 26.1969 23.4735 26.2113 23.4712 26.2255C23.3344 27.0573 23.3704 27.918 23.5848 28.7337C24.0312 30.4317 25.255 31.8646 26.8204 32.6416C28.5872 33.5185 30.75 33.4504 32.4637 32.4736C32.4756 32.4667 32.4879 32.461 32.4999 32.4542C32.5118 32.461 32.5241 32.4669 32.5361 32.4736C32.6181 32.5203 32.701 32.5647 32.7844 32.6074C33.5315 32.9897 34.3614 33.2216 35.2005 33.2644C38.0128 33.408 40.6942 31.4636 41.4139 28.738C41.4145 28.7355 41.4153 28.733 41.4159 28.7305C41.6253 27.9332 41.6633 27.099 41.5377 26.2848C41.5325 26.2507 41.5278 26.2165 41.5219 26.1826C41.549 26.1984 41.5775 26.212 41.6048 26.2276C42.0669 26.4908 42.5646 26.6946 43.0786 26.8309C43.1148 26.9674 43.258 27.3971 43.2887 27.4767C44.136 29.6813 46.1496 31.1759 48.5936 31.3351C50.6758 31.4707 52.7305 30.5515 53.944 28.8384C54.0041 28.7536 54.065 28.6683 54.1214 28.5811C54.2438 28.5881 54.3663 28.5907 54.4889 28.5907C54.9437 28.5905 55.389 28.5417 55.821 28.4438C53.2808 36.6712 49.2536 41.2841 46.4469 43.6538C46.4011 43.5607 46.3516 43.4688 46.2962 43.3792C45.6079 42.2651 44.2612 41.7836 43.0016 41.7836C40.685 41.7836 37.7449 43.0862 34.8645 45.3743C34.8533 45.3832 34.8423 45.3916 34.8311 45.4005C34.8264 45.3988 34.8216 45.3978 34.8169 45.3962C34.3976 45.2518 33.9517 45.1792 33.5084 45.1792H31.4908C31.047 45.1792 30.6019 45.2532 30.182 45.3964C30.1774 45.3979 30.1728 45.3989 30.1683 45.4005C30.1572 45.3916 30.146 45.3832 30.135 45.3744C27.2546 43.0864 24.3144 41.7837 21.9979 41.7837C20.6205 41.7837 19.1838 42.3678 18.5504 43.6574C16.6121 42.0349 14.866 40.0113 13.347 37.6248C13.0646 37.1813 12.4763 37.0505 12.0325 37.3329C11.5889 37.6152 11.4582 38.2038 11.7405 38.6473C13.5845 41.5443 15.7521 43.9483 18.1876 45.8021C18.2675 46.9749 18.6968 48.2004 19.1836 49.2482C18.3367 51.0708 17.6618 53.4318 18.7032 55.117C19.3392 56.1459 20.5093 56.7126 21.9983 56.7128C22.6203 56.7128 23.2873 56.6184 23.9859 56.4368C23.6643 57.4481 23.4023 58.4549 23.2042 59.4469C22.931 60.8158 23.2823 62.22 24.1678 63.2998C25.0542 64.3802 26.3638 65 27.7611 65H37.2387C38.6358 65 39.9454 64.3803 40.8317 63.2997C41.7173 62.22 42.0685 60.8156 41.7953 59.4468C41.5972 58.4549 41.3352 57.4478 41.0136 56.4364C41.7124 56.618 42.3795 56.7124 43.0023 56.7125C44.4909 56.7125 45.6608 56.1459 46.2966 55.1172C47.3382 53.4322 46.6631 51.0708 45.8161 49.2479C46.3031 48.1997 46.7326 46.9735 46.8121 45.8002C49.8327 43.5015 52.424 40.379 54.517 36.507C56.3578 33.1014 57.4809 29.7059 58.1171 27.3552C58.966 26.7069 59.6535 25.8298 60.0864 24.7848C60.9626 22.6691 60.6163 20.3629 59.1982 18.6186ZM29.3264 49.2441C29.3287 48.07 30.3169 47.0831 31.4911 47.0831C31.4911 47.0831 33.5072 47.0831 33.5102 47.0831C34.6798 47.108 35.6736 48.0657 35.6736 49.2479C35.6734 50.2596 34.9115 51.1507 33.949 51.3642C33.8061 51.396 33.6587 51.4127 33.5086 51.4127H31.4911C30.3243 51.4127 29.3287 50.4202 29.3264 49.2517C29.3264 49.2505 29.3263 49.2492 29.3263 49.2479C29.3263 49.2466 29.3264 49.2454 29.3264 49.2441ZM21.9982 54.8082C21.1708 54.8081 20.6073 54.5751 20.3234 54.1155C19.8133 53.2902 20.0936 51.6713 21.0925 49.6737C21.2266 49.4057 21.2266 49.0901 21.0925 48.8221C20.4087 47.4546 20.062 46.2646 20.0746 45.3852C20.1374 44.5214 20.6201 43.8417 21.5201 43.72C21.5276 43.719 21.5353 43.7182 21.5428 43.7173C23.0524 43.525 25.6381 44.3683 28.4843 46.5055C28.2179 46.7975 27.9967 47.1267 27.8258 47.4812C27.8032 47.5281 27.6386 47.9214 27.6437 47.9228C26.3713 47.5825 24.5409 47.2902 22.5028 47.5819C21.9822 47.6564 21.6208 48.139 21.6953 48.6594C21.7698 49.18 22.2516 49.5413 22.7727 49.4669C24.6796 49.194 26.3796 49.5266 27.4669 49.8513C27.5264 50.2493 27.6451 50.6403 27.8203 51.0027C27.8222 51.0065 27.8238 51.0104 27.8257 51.0141C27.9967 51.3689 28.218 51.6984 28.4846 51.9905C27.3693 52.8284 26.2368 53.513 25.163 53.9951C25.1514 54.0003 25.1407 54.0065 25.1294 54.0121C23.5214 54.7221 22.4275 54.8082 21.9982 54.8082ZM39.3593 62.0921C38.8361 62.7299 38.0633 63.0957 37.2387 63.0957H27.7611C26.9364 63.0957 26.1635 62.7299 25.6403 62.092C25.1179 61.455 24.9106 60.6267 25.0717 59.8195C25.3497 58.4262 25.7634 56.9979 26.3023 55.5687C26.9243 55.2697 27.5586 54.9147 28.1974 54.5077C28.8644 54.0827 29.5072 53.6201 30.1267 53.1285C30.1407 53.1174 30.1545 53.1072 30.1685 53.096C30.1746 53.0981 30.1809 53.0994 30.187 53.1014C30.6056 53.241 31.0493 53.317 31.491 53.317C31.491 53.317 33.5085 53.317 33.5086 53.317C33.9515 53.317 34.3924 53.2422 34.8119 53.1017C34.8183 53.0995 34.8248 53.0981 34.8311 53.096C34.8451 53.1072 34.859 53.1174 34.873 53.1286C35.4867 53.6169 36.1375 54.0862 36.8052 54.5096C37.443 54.9157 38.0762 55.2701 38.6973 55.5685C39.2363 56.9981 39.6497 58.4265 39.9279 59.8195C40.089 60.6267 39.8818 61.4551 39.3593 62.0921ZM44.6768 54.1161C44.393 54.5754 43.8297 54.8083 43.0018 54.8083C41.8987 54.8083 40.8319 54.4423 39.8366 53.9954C38.763 53.5134 37.6303 52.8288 36.515 51.9909C36.7821 51.6982 37.0037 51.3683 37.1747 51.0128C37.345 50.6589 37.4728 50.2522 37.5327 49.8516C38.6199 49.5268 40.3201 49.1941 42.2269 49.467C42.7473 49.5413 43.2298 49.18 43.3043 48.6595C43.3789 48.139 43.0173 47.6566 42.4968 47.582C40.4586 47.2902 38.6282 47.5828 37.356 47.9229C37.3591 47.922 37.191 47.5177 37.1745 47.483C37.0035 47.1278 36.7821 46.7981 36.5154 46.5057C39.1494 44.5278 41.5605 43.6575 43.102 43.6916C43.1035 43.6916 43.1049 43.6917 43.1064 43.6917C44.1625 43.6938 44.9083 44.2738 44.9252 45.3835C44.9385 46.2631 44.5918 47.4538 43.9075 48.8224C43.7734 49.0904 43.7734 49.406 43.9075 49.674C44.9064 51.6717 45.1868 53.2909 44.6768 54.1161ZM20.2825 7.31542C20.6163 7.07294 20.7559 6.6432 20.6285 6.25079C20.2908 5.21155 20.4461 4.16952 21.0657 3.31665C21.6986 2.4455 22.7414 1.9043 23.7871 1.9043C24.4724 1.9043 25.1211 2.12316 25.7152 2.55493C26.0489 2.79741 26.5008 2.79741 26.8346 2.55493C27.4289 2.12316 28.0777 1.9043 28.7629 1.9043C29.8085 1.9043 30.8511 2.4455 31.4841 3.31665C32.0992 4.16317 32.2419 5.25814 31.9216 6.25092C31.7973 6.63635 31.9392 7.07738 32.2675 7.31542C33.7059 8.3605 34.0364 10.3265 33.0846 11.8172C33.0817 11.8217 33.0785 11.8262 33.0756 11.8306C32.9805 11.8221 32.5966 11.8041 32.5 11.8041C30.0412 11.8041 27.9297 13.1879 26.9543 15.3824C26.2319 15.4551 25.5498 15.648 24.9159 15.9585C24.4169 15.7426 23.991 15.41 23.6632 14.9796C23.663 14.9775 23.6628 14.9755 23.6625 14.9734C23.4703 12.36 21.4891 10.1232 18.9401 9.5178C19.0554 8.64551 19.5235 7.86678 20.2825 7.31542ZM21.7019 22.9219C21.8483 23.5092 22.0865 24.084 22.4071 24.6031C22.4054 24.604 22.4039 24.6052 22.4021 24.6061C22.3969 24.6088 22.3916 24.6114 22.3864 24.6143C21.9477 24.8546 21.4628 25.0099 20.9695 25.0881C20.5621 25.1526 20.2425 25.4721 20.1781 25.8796C19.8745 27.7956 18.2388 29.2759 16.3137 29.4319C14.7547 29.5582 13.2069 28.7676 12.4018 27.4248C12.1321 26.9751 11.8565 26.5313 11.2441 26.6284C7.27733 27.2572 4.77204 22.293 7.59624 19.4686C7.88798 19.177 7.95857 18.7307 7.77144 18.3633C6.37673 15.626 8.40747 12.1977 11.5116 12.1977C12.1704 12.1977 12.8237 12.3603 13.4534 12.6811C13.8209 12.8684 14.2672 12.7976 14.5587 12.506C17.3787 9.68513 22.3431 12.2102 21.7185 16.1542C21.654 16.5615 21.8592 16.9642 22.2267 17.1515C22.468 17.2745 22.6933 17.4147 22.9012 17.5711C21.7122 19.0475 21.2428 21.0793 21.7019 22.9219ZM39.8387 24.8101C39.8375 24.8108 39.8366 24.8117 39.8355 24.8125C39.5017 25.055 39.3622 25.4847 39.4895 25.877C40.3537 28.5372 38.3066 31.3702 35.4979 31.37C34.6191 31.3699 33.7671 31.0628 33.0595 30.5487C32.729 30.3087 32.2705 30.3088 31.9403 30.5487C31.2305 31.0648 30.3834 31.37 29.502 31.37C26.7371 31.37 24.6613 28.4889 25.5102 25.877C25.6071 25.5788 25.5455 25.243 25.3525 24.9971C25.1085 24.686 24.726 24.4766 24.4587 24.1785C22.7313 22.2523 23.3246 19.1614 25.4947 17.8494C26.1195 17.4717 26.8469 17.2536 27.6204 17.2536C28.0329 17.2536 28.3985 16.988 28.526 16.5956C29.2175 14.4672 31.032 13.7089 32.4995 13.7089C34.2911 13.7089 35.9202 14.8935 36.4739 16.5956C36.6013 16.9879 36.967 17.2536 37.3794 17.2536C39.5778 17.2536 41.4177 19.0309 41.5578 21.2109C41.5585 21.2201 41.5591 21.2292 41.5598 21.2384C41.6455 22.6472 40.9713 23.9847 39.8387 24.8101ZM41.3373 14.9751C41.3372 14.9765 41.3371 14.9779 41.337 14.9793C41.0092 15.4098 40.5832 15.7424 40.0842 15.9584C39.4504 15.6479 38.7681 15.4551 38.0458 15.3823C37.8567 14.9569 37.6186 14.5524 37.3391 14.1802C36.8367 13.5104 36.1879 12.9496 35.4537 12.5473C35.4156 12.5265 34.9944 12.3081 34.989 12.3186C34.9926 12.3113 34.9955 12.3038 34.9991 12.2964C35.204 11.8777 35.3537 11.4307 35.4432 10.9732C36.101 12.1038 37.3254 12.8661 38.725 12.8661C40.8177 12.8661 42.5203 11.1635 42.5203 9.0708C42.5203 6.97823 40.8177 5.27566 38.725 5.27566C37.0417 5.27566 35.6116 6.37762 35.1163 7.89788C35.0182 7.67457 34.9049 7.45824 34.775 7.25093C34.5325 6.86347 34.2353 6.50724 33.9003 6.19633C33.9031 6.18186 33.9045 6.16751 33.9072 6.15304C33.9895 5.71187 34.0159 5.25802 33.9832 4.81025C33.9435 4.26804 33.8114 3.7097 33.5983 3.20887C34.2338 2.40449 35.2247 1.90442 36.2374 1.90442C36.9224 1.90442 37.571 2.12329 38.1653 2.55493C38.4989 2.79741 38.9509 2.79729 39.2846 2.55493C39.8788 2.12316 40.5276 1.9043 41.2128 1.9043C42.2584 1.9043 43.301 2.4455 43.934 3.31665C44.5538 4.16965 44.7091 5.21168 44.3715 6.25079C44.2441 6.64308 44.3837 7.07294 44.7175 7.31529C45.4765 7.86678 45.9447 8.64551 46.0599 9.51755C44.8632 9.8018 43.8075 10.4237 42.9976 11.2709C42.9872 11.2816 42.9767 11.2921 42.9664 11.3029C42.0212 12.2936 41.4411 13.611 41.3373 14.9751ZM36.8339 9.07093C36.8339 8.02839 37.6822 7.18009 38.7248 7.18009C39.7674 7.18009 40.6157 8.02839 40.6157 9.07093C40.6157 10.1136 39.7674 10.9619 38.7248 10.9619C37.6822 10.9618 36.8339 10.1136 36.8339 9.07093ZM58.327 24.056C57.723 25.5138 56.3492 26.5709 54.7622 26.6764C54.76 26.6765 54.7578 26.6767 54.7555 26.6768C54.3995 26.6966 54.0552 26.6595 53.7017 26.6241C53.3126 26.585 52.9372 26.7852 52.7582 27.1365C52.4074 27.8251 51.8857 28.4291 51.2266 28.8379C51.2227 28.8405 51.2186 28.8429 51.2147 28.8453C48.8764 30.2537 45.6418 29.0197 44.9257 26.3679C44.8822 26.2071 44.8476 26.0439 44.8216 25.8794C44.7582 25.4792 44.434 25.152 44.0301 25.088C43.9658 25.0778 42.5496 24.6727 42.5937 24.6014C43.4977 23.137 43.6922 21.3336 43.207 19.6912C43.2053 19.6857 43.2037 19.6804 43.202 19.6751C42.972 18.9125 42.5985 18.1919 42.0987 17.5711C42.3066 17.4147 42.5318 17.2744 42.7732 17.1514C43.1407 16.964 43.3459 16.5614 43.2812 16.154C42.8803 13.6226 44.9098 11.2505 47.5008 11.2505C48.2694 11.2505 49.4033 11.4683 50.4409 12.506C50.7326 12.7978 51.179 12.8685 51.5465 12.6812C52.1762 12.3604 52.8295 12.1977 53.4883 12.1977C56.5944 12.1977 58.6219 15.6283 57.2286 18.3631C57.0413 18.7307 57.112 19.177 57.4036 19.4686C58.6539 20.7189 58.9991 22.4336 58.327 24.056Z" fill="#FF005C"/>
<path d="M1 8V2C1 1.44772 1.44772 1 2 1H8" stroke="#FF005C" stroke-width="1.5" stroke-linecap="round"/>
<path d="M64 8V2C64 1.44772 63.5523 1 63 1H57" stroke="#FF005C" stroke-width="1.5" stroke-linecap="round"/>
<path d="M1 57V63C1 63.5523 1.44772 64 2 64H8" stroke="#FF005C" stroke-width="1.5" stroke-linecap="round"/>
<path d="M64 57V63C64 63.5523 63.5523 64 63 64H57" stroke="#FF005C" stroke-width="1.5" stroke-linecap="round"/>
</svg>
