<svg width="65" height="65" viewBox="0 0 65 65" fill="none" xmlns="http://www.w3.org/2000/svg">
<circle cx="27.3961" cy="27.3961" r="11.3961" fill="#F7D33C"/>
<path d="M60.4497 29.3722L58.7665 22.6392C59.2267 22.5415 59.572 22.1332 59.572 21.6441V20.5585C59.572 18.2015 57.6544 16.284 55.2975 16.284H47.6305V14.0448C47.6305 12.8849 46.687 11.9414 45.5272 11.9414H6.44566C5.28582 11.9414 4.3423 12.8849 4.3423 14.0448V32.4999C4.3423 33.062 4.79794 33.5177 5.36009 33.5177C5.92211 33.5177 6.37787 33.0621 6.37787 32.4999V14.0448C6.37787 14.0073 6.40821 13.977 6.44566 13.977H45.527C45.5645 13.977 45.5948 14.0073 45.5948 14.0448V32.5002C45.5948 33.0622 46.0505 33.518 46.6126 33.518C47.1746 33.518 47.6304 33.0623 47.6304 32.5002V31.3464H59.6362C59.6372 31.3464 59.638 31.3467 59.6389 31.3467C59.6399 31.3467 59.6408 31.3466 59.6417 31.3466C61.119 31.3476 62.3735 32.3173 62.8043 33.6534H59.6397C59.0776 33.6534 58.6219 34.1091 58.6219 34.6712V36.8424C58.6219 38.6008 60.0524 40.0313 61.8108 40.0313H62.9643V44.5093H60.3031C59.4289 41.9851 57.0294 40.1669 54.2117 40.1669C51.3939 40.1669 48.9943 41.9851 48.1202 44.5093H47.6301V36.8423C47.6301 36.2802 47.1745 35.8245 46.6124 35.8245C46.0503 35.8245 45.5946 36.2801 45.5946 36.8423V44.5091H24.4787C23.6045 41.9849 21.205 40.1666 18.3873 40.1666C15.5695 40.1666 13.1699 41.9849 12.2958 44.5091H6.44566C6.40821 44.5091 6.37787 44.4787 6.37787 44.4413V42.2022H10.7881C11.3501 42.2022 11.8059 41.7466 11.8059 41.1844C11.8059 40.6223 11.3502 40.1666 10.7881 40.1666H1.01778C0.455762 40.1666 0 40.6223 0 41.1844C0 41.7466 0.455635 42.2022 1.01778 42.2022H4.34243V44.4413C4.34243 45.6011 5.28595 46.5446 6.44579 46.5446H11.9434C11.9431 46.5672 11.9416 46.5897 11.9416 46.6124C11.9416 50.1666 14.8332 53.0581 18.3873 53.0581C21.9413 53.0581 24.8329 50.1666 24.8329 46.6124C24.8329 46.5896 24.8314 46.5672 24.8311 46.5446H47.7678C47.7675 46.5672 47.766 46.5897 47.766 46.6124C47.766 50.1666 50.6576 53.0581 54.2117 53.0581C57.7657 53.0581 60.6573 50.1666 60.6573 46.6124C60.6573 46.5896 60.6558 46.5672 60.6555 46.5446H63.9821C64.5441 46.5446 64.9999 46.089 64.9999 45.5269V34.671C65 31.9907 63.0224 29.7639 60.4497 29.3722ZM47.6305 18.3194H55.2975C56.5321 18.3194 57.5366 19.3239 57.5366 20.5585V20.6263H47.6305V18.3194ZM47.6305 29.311V22.6617H56.674L58.3364 29.311H47.6305ZM18.3873 51.0229C15.9555 51.0229 13.977 49.0446 13.977 46.6127C13.977 44.1808 15.9555 42.2025 18.3873 42.2025C20.819 42.2025 22.7975 44.1808 22.7975 46.6127C22.7975 49.0446 20.819 51.0229 18.3873 51.0229ZM54.2119 51.0229C51.7801 51.0229 49.8017 49.0446 49.8017 46.6127C49.8017 44.1808 51.7801 42.2025 54.2119 42.2025C56.6437 42.2025 58.6221 44.1808 58.6221 46.6127C58.6221 49.0446 56.6437 51.0229 54.2119 51.0229ZM62.9646 37.9957H61.8111C61.175 37.9957 60.6576 37.4783 60.6576 36.8423V35.6888H62.9644V37.9957H62.9646Z" fill="#FF005C"/>
<path d="M18.3873 44.5093C17.2274 44.5093 16.2839 45.4528 16.2839 46.6126C16.2839 47.7725 17.2274 48.716 18.3873 48.716C19.5471 48.716 20.4906 47.7725 20.4906 46.6126C20.4906 45.4528 19.5471 44.5093 18.3873 44.5093Z" fill="#FF005C"/>
<path d="M54.2119 44.5093C53.0521 44.5093 52.1085 45.4528 52.1085 46.6126C52.1085 47.7725 53.0521 48.716 54.2119 48.716C55.3717 48.716 56.3153 47.7725 56.3153 46.6126C56.3153 45.4528 55.3717 44.5093 54.2119 44.5093Z" fill="#FF005C"/>
<path d="M42.2703 40.167H27.072C26.51 40.167 26.0542 40.6226 26.0542 41.1848C26.0542 41.7469 26.5098 42.2026 27.072 42.2026H42.2703C42.8323 42.2026 43.2881 41.7469 43.2881 41.1848C43.2881 40.6226 42.8325 40.167 42.2703 40.167Z" fill="#FF005C"/>
<path d="M16.2161 35.8247H3.18894C2.62692 35.8247 2.17116 36.2803 2.17116 36.8425C2.17116 37.4046 2.62679 37.8603 3.18894 37.8603H16.2161C16.7781 37.8603 17.2339 37.4046 17.2339 36.8425C17.2339 36.2803 16.7781 35.8247 16.2161 35.8247Z" fill="#FF005C"/>
<path d="M35.3908 22.0099C34.9935 21.6126 34.3489 21.6126 33.9516 22.01L24.9008 31.0607L20.1925 26.3524C19.795 25.9549 19.1506 25.9549 18.7533 26.3524C18.3558 26.7498 18.3558 27.3941 18.7533 27.7916L24.1813 33.2196C24.3799 33.4184 24.6405 33.5177 24.9008 33.5177C25.1612 33.5177 25.4219 33.4184 25.6204 33.2196L35.3907 23.4493C35.7882 23.0517 35.7882 22.4074 35.3908 22.0099Z" fill="#FF005C"/>
</svg>
