<svg width="65" height="65" viewBox="0 0 65 65" fill="none" xmlns="http://www.w3.org/2000/svg">
<g clip-path="url(#clip0)">
<circle cx="32.3961" cy="25.3961" r="11.3961" fill="#F7D33C"/>
<path d="M40.7972 8.09921C33.6475 4.48637 25.0348 5.86775 19.3662 11.5365C12.778 18.1246 12.1186 28.6295 17.8325 35.9717C18.0345 36.2312 18.3364 36.367 18.6416 36.367C18.8615 36.367 19.083 36.2966 19.27 36.1509C19.7165 35.8035 19.7967 35.1599 19.4494 34.7135C14.3688 28.1853 14.956 18.844 20.815 12.985C25.8563 7.94344 33.5152 6.71478 39.8735 9.92759C40.3783 10.183 40.9945 9.98015 41.2497 9.47526C41.5048 8.97036 41.3024 8.35426 40.7972 8.09921Z" fill="#FF005C"/>
<path d="M48.977 16.2803C48.7218 15.7754 48.106 15.5728 47.6007 15.8277C47.0958 16.0827 46.893 16.6987 47.1481 17.2038C50.3586 23.5612 49.1293 31.219 44.0891 36.2591C38.23 42.118 28.8889 42.705 22.3607 37.6247C21.9141 37.2774 21.2707 37.3576 20.9232 37.804C20.5757 38.2505 20.6561 38.894 21.1026 39.2414C24.447 41.8442 28.4475 43.1244 32.4352 43.1244C37.2019 43.1244 41.9506 41.2949 45.5379 37.7076C51.2053 32.0404 52.5873 23.4294 48.977 16.2803Z" fill="#FF005C"/>
<path d="M46.3304 12.3791C46.0766 12.0919 45.81 11.8083 45.5379 11.5363C45.2659 11.2643 44.9824 10.9977 44.6952 10.7439C44.2713 10.3691 43.6238 10.4092 43.2495 10.8331C42.8746 11.2569 42.9144 11.9043 43.3383 12.2789C43.5941 12.5049 43.8468 12.7425 44.0892 12.9849C44.3315 13.2274 44.5691 13.4799 44.7952 13.7357C44.9976 13.9647 45.2797 14.0816 45.5632 14.0816C45.8043 14.0816 46.0462 13.997 46.2411 13.8248C46.6651 13.4503 46.705 12.803 46.3304 12.3791Z" fill="#FF005C"/>
<path d="M56.6296 26.4584C57.3126 25.3378 57.3126 23.9458 56.6293 22.8255L55.2817 20.6156C55.1042 20.3244 55.0355 19.9785 55.0886 19.6419L55.4903 17.0897C55.6951 15.7891 55.1607 14.5001 54.0961 13.7256L52.0076 12.2065C51.7315 12.0055 51.5352 11.7124 51.4548 11.3805L50.8466 8.86695C50.5378 7.59018 49.5528 6.60527 48.2762 6.29627L45.7625 5.68791C45.4306 5.60755 45.1372 5.41128 44.9365 5.13515L43.4172 3.04614C42.6427 1.9815 41.3537 1.4469 40.0534 1.65181L37.5004 2.05349C37.1637 2.10643 36.8177 2.03787 36.5268 1.86039L34.3165 0.5124C33.196 -0.170863 31.8041 -0.170736 30.6836 0.5124L28.4736 1.86001C28.1826 2.03762 27.8369 2.10592 27.4999 2.05311L24.9476 1.65143C23.6473 1.44678 22.3581 1.98112 21.5837 3.04575L20.0646 5.13426C19.8636 5.41039 19.5704 5.60666 19.2384 5.68702L16.7248 6.29525C15.4483 6.604 14.4632 7.58903 14.1542 8.86568L13.5458 11.3794C13.4654 11.7112 13.2693 12.0046 12.993 12.2053L10.904 13.7247C9.83939 14.499 9.30517 15.7878 9.50969 17.0884L9.91137 19.6416C9.96431 19.9784 9.89576 20.3242 9.71827 20.6152L8.37041 22.8256C7.6874 23.9461 7.6874 25.338 8.37054 26.4584L9.71815 28.6684C9.89563 28.9596 9.96431 29.3054 9.91124 29.6421L9.50956 32.1944C9.30479 33.4949 9.83913 34.784 10.9038 35.5584L12.9923 37.0775C13.2684 37.2782 13.4647 37.5716 13.545 37.9035L14.1533 40.417C14.462 41.6938 15.447 42.6787 16.7237 42.9877L17.7733 43.2417L10.6698 59.0873C10.5188 59.4241 10.5606 59.8159 10.7794 60.1132C10.998 60.4105 11.3594 60.5673 11.726 60.5234L17.4417 59.84L20.7344 64.5615C20.9271 64.8376 21.2416 64.9999 21.5743 64.9999C21.6062 64.9999 21.6384 64.9984 21.6704 64.9955C22.0378 64.9609 22.3584 64.7313 22.5093 64.3947L29.7641 48.2108L30.6834 48.7713C31.2436 49.1129 31.8716 49.2837 32.4998 49.2837C33.128 49.2837 33.756 49.1128 34.3162 48.7713L35.2687 48.1906L42.5325 64.3947C42.6835 64.7315 43.0039 64.9609 43.3714 64.9955C43.4036 64.9985 43.4357 65 43.4676 65C43.8003 65 44.1149 64.8378 44.3075 64.5616L47.6001 59.8401L53.3158 60.5235C53.6822 60.5671 54.0439 60.4107 54.2625 60.1133C54.4811 59.816 54.5232 59.4242 54.3721 59.0874L47.2649 43.2331L48.275 42.9887C49.5515 42.68 50.5367 41.6949 50.8457 40.4183L51.4541 37.9046C51.5344 37.5728 51.7307 37.2794 52.0068 37.0787L54.0958 35.5593C55.1605 34.785 55.6947 33.4962 55.4902 32.1955L55.0885 29.6424C55.0355 29.3056 55.1041 28.9597 55.2816 28.6688L56.6296 26.4584ZM21.38 61.9059L18.7706 58.1641C18.5542 57.8538 18.1843 57.6878 17.8088 57.733L13.2792 58.2745L19.7511 43.837C19.8695 43.924 19.9756 44.0282 20.0631 44.1487L21.5824 46.2377C21.7268 46.4361 21.889 46.616 22.0659 46.7762L18.6593 54.3753C18.428 54.8916 18.6588 55.4976 19.175 55.729C19.3111 55.7901 19.4534 55.8189 19.5933 55.8189C19.9846 55.8189 20.3584 55.5934 20.5286 55.2133L23.9231 47.6413C24.2571 47.6871 24.601 47.6864 24.9462 47.632L27.4992 47.2304C27.6521 47.2064 27.8066 47.2085 27.957 47.2334L21.38 61.9059ZM51.7629 58.2743L47.2332 57.733C46.8573 57.6879 46.4878 57.8538 46.2714 58.1641L43.662 61.9059L37.0822 47.2277C37.2202 47.2089 37.361 47.2089 37.5002 47.2307L40.0524 47.6324C40.4115 47.6889 40.7694 47.6871 41.1161 47.6355L44.5131 55.2136C44.6836 55.5938 45.0571 55.8191 45.4484 55.8191C45.5884 55.8191 45.7307 55.7903 45.8667 55.7292C46.3829 55.4979 46.6138 54.8917 46.3824 54.3755L42.9629 46.7476C43.1278 46.5944 43.2803 46.425 43.4163 46.2381L44.9354 44.1496C45.0311 44.0179 45.1484 43.9051 45.2802 43.8138L51.7629 58.2743ZM54.8803 25.3917L53.5324 27.6021C53.1027 28.3072 52.9364 29.1448 53.0647 29.9606L53.4664 32.5137C53.5508 33.0505 53.3302 33.5826 52.8908 33.9023L50.8016 35.4218C50.133 35.9083 49.6574 36.6188 49.4629 37.4226L48.8546 39.9362C48.727 40.4632 48.3205 40.8699 47.7934 40.9975L45.2797 41.6057C44.4758 41.8002 43.7651 42.2757 43.2786 42.9445L41.7595 45.033C41.4399 45.4727 40.9079 45.6931 40.3708 45.6085L37.8185 45.2068C37.0026 45.0785 36.1648 45.2445 35.4596 45.6745L33.2497 47.0222C32.7872 47.304 32.2124 47.304 31.7501 47.0222L29.5398 45.6744C28.99 45.3391 28.3599 45.1644 27.7222 45.1644C27.5419 45.1644 27.3607 45.1784 27.1811 45.2067L24.6279 45.6084C24.0909 45.6929 23.559 45.4722 23.2393 45.0328L21.7198 42.9438C21.2333 42.2751 20.5228 41.7995 19.719 41.605L17.2053 40.9967C16.6784 40.8691 16.2717 40.4626 16.1441 39.9355L15.5359 37.4219C15.3414 36.6181 14.866 35.9073 14.1971 35.4208L12.1087 33.9015C11.6692 33.5819 11.4486 33.0497 11.5332 32.5128L11.9349 29.9605C12.0632 29.1446 11.8972 28.3069 11.4672 27.6017L10.1196 25.3916C9.83761 24.9291 9.83761 24.3544 10.1196 23.892L11.4674 21.6816C11.8973 20.9765 12.0635 20.1389 11.9351 19.3231L11.5335 16.77C11.449 16.2332 11.6697 15.7011 12.1091 15.3814L14.1982 13.8619C14.8669 13.3754 15.3424 12.6649 15.5369 11.8611L16.1453 9.34747C16.2729 8.82048 16.6794 8.41385 17.2065 8.28626L19.7202 7.67803C20.524 7.48354 21.2347 7.00797 21.7211 6.33918L23.2402 4.25067C23.5599 3.81116 24.0918 3.59038 24.6289 3.67506L27.1812 4.07674C27.9973 4.20535 28.835 4.03904 29.5401 3.60905L31.75 2.26144C32.2125 1.9796 32.7873 1.9796 33.2496 2.26144L35.46 3.60917C36.1651 4.03929 37.003 4.20547 37.8186 4.077L40.3718 3.67532C40.9086 3.59115 41.4407 3.81154 41.7604 4.25092L43.2799 6.33994C43.7664 7.0086 44.477 7.48417 45.2807 7.67866L47.7944 8.28702C48.3214 8.41461 48.728 8.82112 48.8556 9.34823L49.4638 11.8618C49.6583 12.6656 50.1337 13.3765 50.8027 13.8629L52.8912 15.3821C53.3307 15.7017 53.5512 16.2339 53.4667 16.7708L53.065 19.3231C52.9366 20.139 53.1027 20.9766 53.5327 21.6819L54.8803 23.892C55.1624 24.3545 55.1624 24.9292 54.8803 25.3917Z" fill="#FF005C"/>
<path d="M44.4865 21.4547C44.2608 20.7598 43.6698 20.2746 42.9441 20.1885L36.7804 19.4576L34.1807 13.8215C33.8746 13.1581 33.2305 12.7458 32.4998 12.7458C31.7692 12.7458 31.125 13.1581 30.8189 13.8215L28.2192 19.4577L22.0555 20.1886C21.3298 20.2747 20.7387 20.7599 20.5131 21.4549C20.2874 22.1494 20.4804 22.8894 21.0166 23.3854L25.5736 27.5996L24.364 33.6876C24.2217 34.4043 24.5005 35.1163 25.0917 35.5457C25.4178 35.7826 25.7963 35.9025 26.1771 35.9025C26.4868 35.9025 26.7978 35.8233 27.0836 35.6633L32.4997 32.6318L37.9158 35.6633C38.5534 36.0203 39.3166 35.9753 39.9078 35.5458C40.499 35.1163 40.7778 34.4042 40.6354 33.6876L39.4257 27.5998L43.9827 23.3856C44.5192 22.8895 44.7122 22.1497 44.4865 21.4547ZM37.614 26.485C37.3525 26.7268 37.2354 27.0873 37.3047 27.4366L38.5425 33.6664L33 30.564C32.8446 30.477 32.6722 30.4335 32.4997 30.4335C32.3271 30.4335 32.1549 30.4769 31.9994 30.564L26.4568 33.6664L27.6946 27.4366C27.7642 27.0871 27.647 26.7268 27.3854 26.485L22.7221 22.1724L29.0299 21.4245C29.3836 21.3826 29.6902 21.1598 29.8395 20.8365L32.4998 15.0688L35.1601 20.8365C35.3094 21.1598 35.6159 21.3826 35.9697 21.4245L42.2772 22.1724L37.614 26.485Z" fill="#FF005C"/>
</g>
<defs>
<clipPath id="clip0">
<rect width="65" height="65" fill="white"/>
</clipPath>
</defs>
</svg>
