<svg width="173" height="58" viewBox="0 0 173 58" fill="none" xmlns="http://www.w3.org/2000/svg">
<g clip-path="url(#clip0)">
<path d="M88.6337 38.7629C87.2497 38.7051 86.2693 38.7051 85.6927 38.7051C85.1737 38.7051 84.597 38.7051 83.9627 38.7629C83.732 38.7629 83.559 38.6473 83.559 38.474C83.559 38.1274 83.8473 37.9541 84.4817 37.8964C84.6547 37.8964 84.8277 37.8964 85.0007 37.8964L88.8067 37.9541C88.9797 37.4342 89.2103 37.2031 89.4987 37.2031C89.6717 37.2031 89.787 37.3187 89.787 37.492L89.8447 37.8386V37.9541C90.1907 37.9541 90.479 37.9541 90.7673 37.8964C91.0557 37.8964 91.2863 37.8386 91.517 37.8386C91.7477 37.8386 92.0937 37.7808 92.555 37.7808C93.0163 37.723 93.5353 37.723 94.112 37.723H94.804C94.8617 37.723 94.977 37.723 95.0347 37.723C95.2653 37.7808 95.323 37.8964 95.323 38.0119C95.323 38.3585 95.0347 38.5896 94.4003 38.5896C93.593 38.5896 92.7857 38.6473 91.863 38.7051C90.998 38.7629 90.133 38.8207 89.441 38.8207C89.2103 39.8605 88.9797 41.0159 88.6913 42.2868C88.403 43.5577 87.4803 48.5836 87.192 50.49C87.1343 50.6633 87.0767 50.7788 86.9613 50.8944C86.846 51.0099 86.7307 51.0677 86.673 51.0677C86.4423 51.0677 86.327 50.9521 86.327 50.6633C86.673 47.6015 86.3847 48.8147 87.6533 43.3844C87.8263 42.5756 87.9993 41.9979 88.057 41.6513C88.1723 41.3047 88.23 41.0159 88.23 40.8426C88.2877 40.6693 88.2877 40.4382 88.3453 40.2071C88.403 39.976 88.403 39.745 88.4607 39.5139C88.576 39.225 88.576 38.994 88.6337 38.7629Z" fill="#817B71"/>
<path d="M98.1487 47.8326C98.3793 47.8326 98.437 47.9481 98.437 48.1214C98.437 48.237 98.3793 48.3525 98.264 48.468C97.745 48.9302 97.1107 49.4501 96.361 50.0856C95.7267 53.3206 95.2077 55.4581 94.6887 56.4401C94.4003 57.0178 93.9967 57.4222 93.4777 57.7111C93.1893 57.8844 92.901 57.9421 92.555 57.9421C91.9207 57.9421 91.4016 57.711 91.0556 57.2489C90.7096 56.7867 90.5367 56.3246 90.5367 55.9202C90.5367 55.1692 90.7097 54.476 91.1133 53.8405C91.517 53.2051 92.036 52.6274 92.728 51.9919C93.074 51.7031 93.7083 51.1832 94.5733 50.5477L95.496 49.8545C95.496 49.7389 95.5537 49.6234 95.6113 49.4501C95.669 49.2768 95.669 49.1035 95.7267 48.8724C95.7843 48.6991 95.842 48.468 95.842 48.2947C95.8997 48.1214 95.8997 47.9481 95.9573 47.7748C95.7267 48.468 95.3807 49.0457 94.8617 49.5656C94.3427 50.0856 93.8237 50.3744 93.3623 50.3744C92.901 50.3744 92.4973 50.2011 92.209 49.7967C91.9206 49.4501 91.7477 48.9302 91.7477 48.2369C91.7477 47.1971 92.036 45.5796 92.6127 43.3266C92.901 42.229 93.074 41.5935 93.074 41.5358V41.3047C93.074 41.2469 93.1317 41.1314 93.3047 41.0158C93.4777 40.9003 93.593 40.8425 93.7083 40.8425C93.939 40.8425 94.0543 40.9581 94.0543 41.1891C94.0543 41.4202 93.8237 42.4601 93.3623 44.3087C92.901 46.1573 92.6703 47.4282 92.6703 48.0636C92.6703 48.6991 92.728 49.1035 92.901 49.2768C93.074 49.4501 93.247 49.5079 93.4777 49.5079C93.939 49.5079 94.458 49.1035 94.977 48.2947C95.496 47.486 95.9573 46.3883 96.3033 45.0019C96.707 43.6154 96.9377 42.6334 97.053 42.1134C97.1683 41.5935 97.2837 41.2469 97.399 41.0736C97.5143 40.9003 97.6297 40.8425 97.8027 40.8425C97.9757 40.8425 98.091 40.9003 98.091 40.9581C98.1487 41.0158 98.1487 41.0736 98.1487 41.1891C97.918 42.3445 97.6297 43.6732 97.226 45.233C96.88 46.7927 96.5917 48.0636 96.4187 49.1035C96.6493 48.8724 96.88 48.6991 97.053 48.5258C97.226 48.3525 97.399 48.1792 97.572 48.0636C97.745 47.9481 98.0333 47.8326 98.1487 47.8326ZM95.3807 50.9521L95.0923 51.2409C94.6887 51.5875 94.2273 51.9342 93.8237 52.2808C92.3243 53.4939 91.5747 54.6493 91.5747 55.7469C91.5747 56.2668 91.7477 56.6712 92.0937 56.9023C92.209 57.0178 92.4397 57.0756 92.6703 57.0756C92.901 57.0756 93.1317 57.0178 93.3047 56.8445C93.4777 56.6712 93.6507 56.4979 93.8237 56.2091C93.9967 55.978 94.112 55.6891 94.2273 55.3425C94.3427 55.0537 94.458 54.7071 94.5733 54.4182C94.6887 54.1294 94.7463 53.7828 94.804 53.4939C94.8617 53.2051 94.9193 52.974 94.977 52.8007L95.3807 50.9521Z" fill="#817B71"/>
<path d="M98.956 48.5836C98.956 49.3346 99.302 49.739 100.052 49.739C100.628 49.739 101.147 49.4501 101.666 48.8724C102.185 48.2948 102.704 47.6015 103.108 46.7928C103.512 45.9262 103.8 45.233 103.973 44.7131C104.146 44.1354 104.319 43.6155 104.434 43.0955C104.607 42.5756 104.78 42.1135 105.011 41.6513C105.242 41.1892 105.415 41.0159 105.645 41.0159C105.876 41.0159 105.991 41.1314 105.991 41.3625C105.991 41.5358 105.876 41.9979 105.645 42.6912C105.415 43.3844 105.184 44.2509 105.011 45.3485C104.838 46.3884 104.723 47.5438 104.723 48.6414C104.723 49.2768 104.838 49.5657 105.069 49.6812C105.126 49.6812 105.184 49.6812 105.299 49.6812C105.415 49.6812 105.472 49.6812 105.53 49.6812C105.588 49.6812 105.703 49.6234 105.761 49.5657C105.818 49.5079 105.934 49.4501 106.049 49.3924C106.164 49.3346 106.28 49.2191 106.395 49.1035C106.51 48.988 106.683 48.9302 106.799 48.9302C107.029 48.9302 107.145 49.0457 107.145 49.2768C107.145 49.5079 106.914 49.7967 106.453 50.0856C105.991 50.3744 105.53 50.5477 105.184 50.5477C104.377 50.5477 103.973 49.6812 103.973 47.9481C103.973 47.5438 104.031 47.0816 104.088 46.5617C103.627 47.7171 103.05 48.6414 102.243 49.4501C101.436 50.2011 100.686 50.6055 99.9364 50.6055C99.475 50.6055 99.129 50.5477 98.956 50.3744C98.61 50.0856 98.3794 49.739 98.264 49.2191C98.264 49.1613 98.2064 49.1035 98.2064 48.988C98.2064 48.8724 98.264 48.7569 98.3794 48.6991C98.4947 48.5836 98.61 48.5258 98.7254 48.5258C98.7254 48.3525 98.8407 48.4103 98.956 48.5836Z" fill="#817B71"/>
<path d="M41.8083 23.6274C43.1923 24.4939 44.0573 25.5338 44.4033 26.8625C44.7493 28.2489 44.6917 29.4043 44.115 30.3286C43.5383 31.2529 42.6157 32.0039 41.2317 32.5238C39.9053 33.0437 38.2907 33.2748 36.3877 33.2748L34.6577 33.217C33.4467 33.1593 32.2357 33.1593 31.1977 33.1593C29.1793 33.1593 27.68 33.217 26.642 33.2748L26.5843 32.6971C27.2763 32.6393 27.7953 32.5816 28.1413 32.466C28.4873 32.3505 28.6603 32.1194 28.7757 31.7728C28.891 31.4262 28.9487 30.9063 28.9487 30.1553L28.891 15.4242C28.891 14.7888 28.8333 14.3266 28.718 13.98C28.6027 13.5756 28.372 13.3445 28.0837 13.1712C27.7377 12.9979 27.2187 12.8824 26.469 12.8824V12.3047C27.507 12.3625 29.064 12.4202 31.0247 12.4202L33.562 12.3625C33.9657 12.3625 34.6 12.3047 35.3497 12.3047C37.541 12.3047 39.271 12.6513 40.5397 13.3445C41.8083 14.0378 42.558 15.0198 42.904 16.233C43.1923 17.2728 43.1347 18.1971 42.6733 19.0637C42.2697 19.9302 41.52 20.6234 40.4243 21.2011C39.3863 21.7788 38.06 22.1254 36.5607 22.2987C38.6943 22.2987 40.4243 22.7609 41.8083 23.6274ZM38.2907 31.715C38.9827 31.1374 39.3863 30.3864 39.5593 29.4621C39.7323 28.5378 39.6747 27.4401 39.3287 26.2848C39.0403 25.1294 38.5213 24.2629 37.7717 23.5696C37.022 22.8764 36.0993 22.5876 34.8883 22.5876H33.562L33.6197 30.0975C33.6197 30.7907 33.6773 31.1951 33.735 31.4262C33.8503 31.8306 34.0233 32.0617 34.3117 32.2927C34.6 32.466 34.946 32.5816 35.465 32.5816C36.676 32.5816 37.5987 32.2927 38.2907 31.715ZM33.7927 13.229C33.6197 13.5178 33.5043 14.0955 33.5043 14.9043L33.562 22.0676H34.6C35.6957 22.0676 36.503 21.7788 37.1373 21.2011C37.7717 20.6234 38.1177 19.8146 38.2907 18.8326C38.406 17.8505 38.3483 16.8107 38.06 15.7131C37.8293 14.7888 37.4257 14.0955 36.9643 13.5756C36.503 13.0557 35.811 12.8246 35.0037 12.8246C34.427 12.8246 34.0233 12.9401 33.7927 13.229Z" fill="#817B71"/>
<path d="M61.934 12.2468C61.761 13.7488 61.7033 14.9042 61.761 15.7707C61.761 16.2329 61.8187 16.8106 61.8763 17.6193H61.242C61.1843 17.3883 61.1267 16.9839 61.0113 16.5217C60.6653 15.193 60.1463 14.2687 59.512 13.7488C58.8777 13.2289 57.955 12.9401 56.744 12.9401H55.8213C55.1293 12.9401 54.6103 12.9978 54.322 13.1134C54.0337 13.2289 53.803 13.46 53.6877 13.8066C53.5723 14.1532 53.5147 14.6731 53.5147 15.4241V22.1253H54.6103C55.5907 22.1253 56.3403 21.7787 56.8017 21.0855C57.263 20.3922 57.609 19.5257 57.6667 18.5436H58.3587C58.301 19.699 58.2433 20.7389 58.301 21.6632V22.4142C58.301 23.3385 58.3587 24.6094 58.474 26.2847H57.8397C57.8397 26.1691 57.782 25.9381 57.6667 25.6492C57.1477 23.6851 56.052 22.7608 54.3797 22.7608H53.457V30.213C53.457 30.8484 53.5147 31.3106 53.5723 31.6572C53.6877 32.0616 53.9183 32.3504 54.2067 32.466C54.5527 32.5815 55.0717 32.6393 55.7637 32.6393H56.8593C57.955 32.6393 58.7623 32.466 59.3967 32.1771C60.031 31.8305 60.55 31.3106 60.896 30.5596C61.242 29.8086 61.588 28.7687 61.8187 27.4401H62.5107C62.453 28.0177 62.3953 28.711 62.453 29.5775C62.453 30.7329 62.5107 32.0038 62.6837 33.3903C61.2997 33.3325 59.0507 33.2747 55.9367 33.2747C51.6693 33.2747 48.44 33.3325 46.3063 33.3903V32.8126C46.9983 32.7548 47.5173 32.697 47.8057 32.5815C48.094 32.466 48.3247 32.2349 48.44 31.8883C48.5553 31.5416 48.613 31.0217 48.613 30.2707L48.5553 15.5397C48.5553 14.8464 48.4977 14.3843 48.3823 14.0954C48.267 13.6333 48.0363 13.3444 47.748 13.2289C47.402 13.1134 46.883 12.9978 46.1333 12.9401V12.3624C48.3247 12.4201 51.4963 12.4779 55.7637 12.4779C58.7623 12.3046 60.723 12.3046 61.934 12.2468Z" fill="#817B71"/>
<path d="M84.7123 8.37651C85.2313 8.7809 85.5773 9.30082 85.7503 9.82074C86.0963 11.0339 85.635 11.9582 84.4816 12.6514C83.4436 13.2291 81.8866 13.5179 79.753 13.5179C79.407 13.5179 78.8303 13.5179 78.023 13.4602L78.0806 29.8088C78.0806 30.3865 78.1383 30.8486 78.196 31.1952C78.3113 31.7152 78.5996 32.0618 79.061 32.2928C79.4646 32.5239 80.1566 32.6395 81.0793 32.6972L81.137 33.2749C79.8683 33.2171 78.023 33.1594 75.601 33.1594C73.2366 33.1594 71.5066 33.2171 70.411 33.2749L70.3533 32.6972C71.2183 32.6395 71.795 32.5817 72.2563 32.4084C72.66 32.2351 72.9483 31.9462 73.1213 31.5996C73.2943 31.1952 73.352 30.6175 73.352 29.8666L73.2943 13.1136C71.795 12.998 70.584 12.8825 69.6613 12.8825C68.0466 12.8825 66.951 13.0558 66.432 13.4024C67.0086 13.5757 67.47 13.8646 67.9313 14.2689C68.3926 14.6733 68.681 15.1932 68.854 15.7709C69.027 16.4642 68.9693 17.0418 68.681 17.5618C68.3926 18.0239 67.8736 18.3128 67.2393 18.3128C66.605 18.3128 66.0283 18.0817 65.5093 17.6195C64.9903 17.1574 64.6443 16.6375 64.4713 15.9442C64.2983 15.3666 64.356 14.8466 64.4713 14.3267C64.6443 13.8068 64.9903 13.4024 65.567 13.0558C66.432 12.5936 67.643 12.3626 69.373 12.3626C70.6993 12.3626 72.5446 12.4781 74.9666 12.7092C77.2156 12.8825 78.8303 12.998 79.8106 12.998C81.137 12.998 82.175 12.8825 82.867 12.5936C82.521 12.3048 82.175 11.9582 81.829 11.5538C81.5406 11.1494 81.31 10.6873 81.1946 10.2251C81.0216 9.53189 81.0793 8.9542 81.3676 8.49205C81.656 8.0299 82.175 7.79882 82.867 7.79882C83.6166 7.74105 84.1933 7.97213 84.7123 8.37651Z" fill="#817B71"/>
<path d="M94.631 31.5417C94.7463 31.946 94.977 32.2349 95.2653 32.3504C95.6113 32.466 96.1303 32.5815 96.9377 32.6393L96.9953 33.217C95.8997 33.1592 94.3427 33.1014 92.3243 33.1014C90.1907 33.1014 88.576 33.1592 87.538 33.217V32.6393C88.23 32.5815 88.6913 32.5237 89.0373 32.4082C89.3257 32.2927 89.5563 32.0616 89.6717 31.715C89.787 31.3684 89.8447 30.8484 89.8447 30.0974L89.787 15.3664C89.787 14.6731 89.7293 14.211 89.614 13.9221C89.4987 13.46 89.268 13.1711 88.9797 13.0556C88.6337 12.9401 88.1147 12.8245 87.365 12.7668V12.1891C88.403 12.2468 90.0177 12.3046 92.209 12.3046C94.112 12.3046 95.669 12.2468 96.88 12.1891V12.7668C96.188 12.8245 95.669 12.8823 95.323 12.9978C95.0347 13.1134 94.804 13.3445 94.6887 13.6911C94.5733 14.0377 94.5157 14.5576 94.5157 15.3086L94.5733 30.0397C94.5157 30.8484 94.5157 31.3106 94.631 31.5417ZM105.299 12.5357C105.934 12.9978 106.337 13.6333 106.568 14.4421C106.741 15.1931 106.683 15.8285 106.395 16.464C106.049 17.0994 105.53 17.3883 104.665 17.3883C104.088 17.3883 103.627 17.215 103.108 16.8684C102.647 16.5217 102.301 16.0596 102.185 15.4819C102.012 14.9042 102.07 14.3265 102.301 13.7488C102.531 13.1711 102.993 12.7668 103.569 12.4779C103.454 12.4202 103.281 12.3624 103.05 12.3624C102.704 12.3624 102.416 12.4202 102.243 12.5357C102.07 12.6512 101.897 12.8245 101.724 12.9978C101.493 13.3445 101.378 13.8066 101.263 14.3843C101.147 14.962 101.09 15.6552 101.09 16.5795C101.032 17.6771 100.974 18.5437 100.859 19.2369C100.744 19.9301 100.513 20.5656 100.167 21.1433C99.821 21.7209 99.2443 22.0676 98.4947 22.2409C100.052 22.4142 101.263 22.7608 102.07 23.3962C102.877 23.9739 103.454 24.8982 103.8 26.1692C103.858 26.4002 103.915 26.7468 104.031 27.3245L104.55 30.4441C104.665 31.1951 105.011 31.5417 105.588 31.5417C105.991 31.5417 106.222 31.4261 106.395 31.1373C106.568 30.8484 106.683 30.3863 106.741 29.8086L106.856 28.3066H107.433L107.26 30.6174C107.202 31.715 106.856 32.466 106.337 32.9859C105.761 33.5058 105.069 33.7947 104.146 33.7947C102.993 33.7947 102.07 33.5058 101.378 32.9859C100.628 32.466 100.167 31.715 99.8787 30.7329C99.821 30.5596 99.7633 30.3285 99.7633 30.0397L99.1867 25.8803C99.129 25.4182 99.0137 25.0138 98.956 24.6094C98.8407 24.0895 98.6677 23.7429 98.437 23.3962C98.264 23.1074 97.9757 22.8763 97.6297 22.6453C96.8223 22.8763 96.2457 22.9919 95.8997 22.9919C95.3807 22.9919 95.0923 22.8186 95.0347 22.4719C94.9193 22.0098 95.15 21.7787 95.7267 21.7787C96.188 21.7787 96.7647 21.8943 97.572 22.0676C98.437 21.952 99.0713 21.6054 99.475 21.0855C99.8787 20.5656 100.109 19.9301 100.225 19.2947C100.34 18.6014 100.398 17.7349 100.455 16.5795C100.455 15.5974 100.513 14.7887 100.628 14.211C100.686 13.6333 100.917 13.1711 101.147 12.7668C101.551 12.1891 102.185 11.9002 102.993 11.9002C103.915 11.7847 104.665 12.0735 105.299 12.5357Z" fill="#817B71"/>
<path d="M170.174 23.6274C171.558 24.4939 172.423 25.5338 172.769 26.8625C173.115 28.2489 173.058 29.4043 172.481 30.3286C171.904 31.2529 170.982 32.0039 169.598 32.5238C168.271 33.0437 166.657 33.2748 164.754 33.2748L163.024 33.217C161.813 33.1593 160.602 33.1593 159.564 33.1593C157.545 33.1593 156.046 33.217 155.008 33.2748L154.95 32.6971C155.642 32.6393 156.161 32.5816 156.507 32.466C156.853 32.3505 157.026 32.1194 157.142 31.7728C157.257 31.4262 157.315 30.9063 157.315 30.1553L157.257 15.4242C157.257 14.7888 157.199 14.3266 157.084 13.98C156.969 13.5756 156.738 13.3445 156.45 13.1712C156.104 12.9979 155.585 12.8824 154.835 12.8824V12.3047C155.873 12.3625 157.43 12.4202 159.391 12.4202L161.928 12.3625C162.332 12.3625 162.966 12.3047 163.716 12.3047C165.907 12.3047 167.637 12.6513 168.906 13.3445C170.174 14.0378 170.924 15.0198 171.27 16.233C171.558 17.2728 171.501 18.1971 171.039 19.0637C170.636 19.9302 169.886 20.6234 168.79 21.2011C167.752 21.7788 166.426 22.1254 164.927 22.2987C167.06 22.2987 168.848 22.7609 170.174 23.6274ZM166.657 31.715C167.349 31.1374 167.752 30.3864 167.925 29.4621C168.098 28.5378 168.041 27.4401 167.695 26.2848C167.406 25.1294 166.887 24.2629 166.138 23.5696C165.388 22.8764 164.465 22.5876 163.254 22.5876H161.928L161.986 30.0975C161.986 30.7907 162.043 31.1951 162.101 31.4262C162.216 31.8306 162.389 32.0617 162.678 32.2927C162.966 32.466 163.312 32.5816 163.831 32.5816C165.042 32.5816 165.965 32.2927 166.657 31.715ZM162.159 13.229C161.986 13.5178 161.87 14.0955 161.87 14.9043L161.928 22.0676H162.966C164.062 22.0676 164.869 21.7788 165.503 21.2011C166.138 20.6234 166.484 19.8146 166.657 18.8326C166.772 17.8505 166.714 16.8107 166.426 15.7131C166.195 14.7888 165.792 14.0955 165.33 13.5756C164.869 13.0557 164.177 12.8246 163.37 12.8246C162.793 12.8246 162.389 12.9401 162.159 13.229Z" fill="#817B71"/>
<path d="M22.9513 37.0297C23.009 37.8385 23.009 38.4739 23.0667 38.8783H22.4323C22.317 38.3006 22.2017 37.7807 22.0863 37.3185C21.6827 35.8165 21.0483 34.7189 20.1833 34.1412C19.3183 33.5058 18.1073 33.2169 16.608 33.2169C15.916 33.2169 15.3393 33.2169 14.878 33.2747L11.1297 33.3325C9.861 33.3325 8.53467 33.3325 7.093 33.2747H5.017C2.82567 33.2747 1.211 33.2747 0.173 33.3903V32.8126C0.922667 32.7548 1.44167 32.697 1.73 32.5815C2.01833 32.466 2.249 32.2349 2.36433 31.8883C2.47967 31.5416 2.53733 31.0217 2.53733 30.2707L2.47967 15.3663C2.422 14.6154 2.422 14.1532 2.36433 13.9221C2.249 13.5177 2.01833 13.2289 1.73 13.1134C1.44167 12.9978 0.865 12.8823 0.0576667 12.8245L0 12.2468C1.038 12.3046 2.71033 12.3624 4.90167 12.3624C6.92 12.3624 8.41933 12.3046 9.515 12.2468L9.57267 12.8245C8.88067 12.8823 8.36167 12.9401 8.01567 13.0556C7.66967 13.1711 7.49667 13.4022 7.38133 13.7488C7.266 14.0954 7.20833 14.6154 7.20833 15.3663L7.266 30.0974C7.266 30.7329 7.266 31.195 7.38133 31.5416C7.49667 32.0038 7.72733 32.2926 8.07333 32.4082C8.41933 32.5815 8.93833 32.6393 9.688 32.6393C11.2695 32.6393 10.7539 32.6393 12.6867 32.6393C13.3787 32.6393 13.8977 32.5815 14.186 32.466C14.4743 32.3504 14.705 32.1193 14.8203 31.7727C14.9357 31.4261 14.9933 30.9062 14.9933 30.1552L14.9357 15.4241C14.9357 14.6731 14.878 14.211 14.8203 13.9799C14.705 13.5755 14.4743 13.2867 14.186 13.1711C13.84 13.0556 13.321 12.9401 12.5137 12.8823L12.456 12.3046C13.5517 12.3624 15.1087 12.4201 17.127 12.4201C19.2607 12.4201 20.8753 12.3624 21.9133 12.3046V12.8823C21.2213 12.9401 20.76 12.9978 20.414 13.1134C20.1257 13.2289 19.895 13.46 19.7797 13.8066C19.6643 14.1532 19.6067 14.6731 19.6067 15.4241L19.6643 30.1552C19.6643 30.8484 19.722 31.3106 19.8373 31.5994C19.9527 32.0616 20.1833 32.3504 20.5293 32.466C20.8753 32.6393 21.3943 32.697 22.144 32.697H23.0667C22.9513 33.5636 22.9513 35.0656 22.9513 37.0297Z" fill="#817B71"/>
<path d="M141.341 21.0857C141.283 20.4502 141.226 19.757 141.053 19.1215C140.88 18.3705 140.649 17.6773 140.361 17.0419C140.361 17.0419 140.361 17.0419 140.361 16.9841C139.784 15.7709 138.977 14.7311 137.939 13.9223C137.65 13.6913 137.362 13.518 137.074 13.3446C136.209 12.8825 135.286 12.5359 134.248 12.3048C133.729 12.1893 133.152 12.1315 132.576 12.0737C132.345 12.0737 132.114 12.0737 131.884 12.0737C130.961 12.0737 130.038 12.1893 129.231 12.3626C127.905 12.7092 126.751 13.2869 125.713 14.2112C125.54 14.3267 125.425 14.5 125.252 14.6156C124.156 15.6554 123.349 16.9263 122.772 18.3705C122.599 18.7749 122.484 19.2371 122.311 19.6415V19.6992C122.196 20.0458 122.138 20.3925 122.08 20.7391C121.792 22.1255 121.734 23.512 121.85 24.8984C121.907 25.3606 121.965 25.8805 122.08 26.3427C122.138 26.6315 122.196 26.9203 122.311 27.1514C122.484 27.7291 122.715 28.249 122.945 28.769C123.464 29.8088 124.214 30.7331 125.194 31.4263L125.252 31.4841C126.117 32.1195 127.097 32.6395 128.193 32.9283C129.116 33.2172 130.154 33.3327 131.249 33.3327H131.365C131.538 33.3327 131.768 33.3327 131.941 33.3327C132.691 33.2749 133.383 33.2172 134.017 33.0439C135.171 32.755 136.209 32.2351 137.131 31.4841C137.247 31.4263 137.362 31.3108 137.477 31.1952C137.823 30.9064 138.112 30.6176 138.4 30.2709C139.38 29.1733 140.13 27.9024 140.649 26.4004C140.707 26.1693 140.822 25.9383 140.88 25.7072C141.168 24.6096 141.341 23.512 141.399 22.4144C141.399 21.9522 141.399 21.5478 141.341 21.0857Z" fill="#F7D33C"/>
<path d="M150.222 48.0637V48.0059C150.222 47.8326 150.106 47.6593 149.933 47.6016C149.703 47.486 149.414 47.6593 149.357 47.8904C149.184 48.3526 148.953 48.6414 148.665 48.7569C147.857 49.1035 146.358 48.4103 144.628 47.6016C141.053 45.9263 136.266 43.731 132.057 48.237V25.0139C132.806 24.9561 133.325 24.6673 133.614 24.0896C133.96 23.4541 134.017 22.8187 133.787 22.0677C133.614 21.3167 133.21 20.739 132.633 20.2769C132.518 20.2191 132.46 20.1613 132.345 20.1036C131.711 19.9302 131.192 20.0458 130.903 20.0458C130.788 20.0458 130.673 20.1036 130.615 20.1613C130.096 20.4502 129.75 20.8545 129.519 21.3745C129.289 21.9522 129.231 22.5298 129.404 23.1075C129.577 23.6852 129.865 24.1474 130.327 24.494C130.557 24.6673 130.846 24.7828 131.076 24.8984V48.1792C126.578 43.5 121.1 46.2729 117.409 48.1215C116.141 48.7569 114.872 49.4502 114.295 49.3346C114.007 49.2769 113.834 48.8725 113.834 48.5836C113.834 47.8904 113.949 46.9083 114.122 45.8685C114.295 44.6553 114.468 43.7888 114.641 43.2689C114.814 42.749 114.872 42.4601 114.872 42.4601V42.4024C114.872 42.1135 114.699 41.998 114.468 41.998C114.411 41.998 114.295 41.998 114.295 42.0557C114.295 41.8824 114.295 41.7091 114.238 41.5936C114.18 41.0737 113.834 40.8426 113.257 40.8426C112.681 40.8426 111.989 41.3047 111.066 42.229C110.201 43.1533 109.394 44.3087 108.759 45.5796C108.067 46.8506 107.779 47.9482 107.779 48.8725C107.779 49.739 108.125 50.2012 108.817 50.2012C109.163 50.2012 109.509 50.0856 109.855 49.8545C110.143 49.6235 110.72 48.988 111.527 48.0059C112.335 47.0239 113.027 45.984 113.546 44.8864C113.257 46.1573 113.084 47.1394 112.969 47.8904C112.911 48.237 112.911 48.5259 112.911 48.7569C112.911 49.1035 113.027 49.4502 113.257 49.739C113.373 49.9123 114.18 50.6633 116.833 50.9522C118.678 51.1255 121.042 50.49 123.522 50.0279C126.751 49.3924 130.442 48.6992 131.249 49.6812L131.307 49.739C131.365 49.7968 131.422 49.7968 131.538 49.7968H131.595C131.653 49.7968 131.653 49.7968 131.711 49.7968C131.711 49.7968 131.711 49.7968 131.768 49.7968C131.884 49.7968 131.941 49.739 131.999 49.6235C132.864 48.6414 136.497 49.3346 139.726 49.9701C142.148 50.4322 144.513 50.8944 146.416 50.8944C147.742 50.8944 148.895 50.6633 149.587 50.0279C150.106 49.6812 150.337 48.988 150.222 48.0637ZM113.546 42.8067C113.488 42.98 113.2 43.6155 112.681 44.6553C111.7 46.5617 110.547 48.0637 109.336 49.1035C109.221 49.1613 109.163 49.2191 108.99 49.2191C108.817 49.2191 108.702 49.1035 108.702 48.8725C108.702 48.1215 108.932 47.3127 109.394 46.3306C109.855 45.3486 110.432 44.482 111.066 43.6155C111.758 42.8067 112.335 42.229 112.796 41.998C113.027 41.8824 113.2 41.8247 113.257 41.8247C113.373 41.8247 113.43 41.8824 113.488 41.998C113.546 42.1135 113.603 42.229 113.603 42.3446C113.603 42.5179 113.603 42.6334 113.546 42.8067ZM123.291 49.2191C120.581 49.739 117.64 50.3167 115.795 50.0856C116.371 49.8545 117.121 49.5079 117.871 49.1035C121.331 47.3127 125.944 45.002 129.923 48.4681C128.251 48.2948 125.886 48.7569 123.291 49.2191ZM139.899 49.2191C137.304 48.6992 134.882 48.237 133.268 48.4103C136.901 45.0597 140.995 46.9083 144.282 48.4681C146.012 49.2769 147.454 49.9123 148.549 49.739C146.935 50.6055 143.186 49.8545 139.899 49.2191Z" fill="#817B71"/>
<path d="M150.568 11.8426C148.838 11.3805 145.724 12.998 141.802 16.3486C141.572 16.5797 141.399 16.753 141.226 16.9263C141.456 17.504 141.687 18.1972 141.86 18.8905C141.975 19.4104 142.033 19.9303 142.091 20.508C142.148 20.508 142.206 20.4502 142.264 20.4502C142.321 20.4502 142.379 20.3924 142.437 20.3924C142.61 20.3347 142.725 20.2769 142.898 20.2191C143.186 20.1036 143.475 19.9881 143.821 19.8725C145.147 19.2948 146.531 18.5438 147.684 17.8506C147.8 17.7928 147.915 17.6773 148.03 17.6195C148.203 17.504 148.376 17.3885 148.492 17.2729L148.607 17.2152C149.357 16.6375 149.53 16.3486 149.587 16.2331C149.76 15.7709 150.164 15.251 150.568 14.7311C151.144 13.9801 151.894 13.0558 151.721 12.5359C151.49 12.1315 150.971 11.9582 150.568 11.8426Z" fill="#817B71"/>
<path d="M136.785 1.32865L136.67 1.50196C135.574 3.52387 135.113 7.741 134.825 10.5717C134.767 10.8605 134.767 11.0916 134.767 11.3227C134.767 11.4382 134.767 11.5538 134.709 11.6693C135.517 11.8426 136.324 12.1314 137.016 12.5358C137.131 12.247 137.304 11.9581 137.42 11.6693C139.207 7.39439 139.438 2.71511 138.573 1.09758C138.4 0.808732 138.227 0.577656 137.996 0.577656C137.823 0.462119 137.362 0.346581 136.785 1.32865Z" fill="#817B71"/>
<path d="M138.112 11.9582C137.996 12.2471 137.823 12.5937 137.708 12.8825C137.939 12.9981 138.169 13.1714 138.342 13.3447C139.38 14.0957 140.188 15.0777 140.764 16.2331C140.88 16.1176 141.053 16.002 141.226 15.8865L141.283 15.8287C144.513 12.5359 146.127 7.79885 145.493 5.6614C145.32 5.08371 144.974 4.67933 144.513 4.56379C142.898 4.10164 140.649 6.75901 138.112 11.9582Z" fill="#817B71"/>
<path d="M131.595 2.36852C131.538 2.71513 131.595 2.88844 131.653 3.23505C131.768 3.58167 131.826 3.92828 131.941 4.27489C131.999 4.50597 132.057 4.79481 132.114 5.02589C132.403 6.29681 132.576 7.68326 132.749 9.06971C132.806 9.35856 132.806 9.6474 132.806 9.93625C132.806 10.0518 132.806 10.1096 132.806 10.2251C132.864 10.5717 132.864 10.9761 132.864 11.3227C133.21 11.3227 133.556 11.3805 133.902 11.4382C133.902 11.3805 133.902 11.2649 133.902 11.2072C133.902 11.0916 133.902 11.0339 133.902 10.9183C133.902 10.745 133.96 10.6295 133.96 10.4562C134.017 9.76294 134.133 8.95418 134.248 8.14541C134.306 7.85657 134.306 7.50995 134.363 7.22111C134.479 6.41234 134.594 5.66135 134.767 4.85258C134.767 4.79481 134.767 4.73705 134.825 4.73705C134.825 4.62151 134.882 4.50597 134.882 4.4482C134.94 4.04382 135.055 3.6972 135.171 3.35059C135.171 3.29282 135.228 3.17728 135.228 3.11952C135.228 3.00398 135.286 2.88844 135.344 2.7729C135.401 2.65736 135.401 2.48406 135.459 2.36852C135.517 2.13744 135.632 1.96414 135.69 1.73306C135.69 1.67529 135.747 1.61752 135.747 1.55975C135.747 1.55975 135.863 1.38645 135.863 1.32868C136.036 0.577683 134.306 -0.231082 133.268 0.0577623C132.46 0.288838 131.826 1.15537 131.595 2.36852Z" fill="#817B71"/>
<path d="M141.918 38.7629C142.148 39.3405 142.61 39.8027 143.186 39.9182C143.705 40.0338 144.167 39.976 144.397 39.976C145.089 39.8605 145.493 39.5139 145.666 39.2828C146.3 38.1274 145.205 35.7011 144.109 34.1413C143.936 34.0258 143.821 33.9103 143.648 33.7947C143.359 33.6792 143.071 33.5637 142.783 33.3903C142.667 33.3326 142.494 33.2748 142.379 33.217C142.091 33.1015 141.86 32.986 141.572 32.8127C141.341 32.6971 141.168 32.5816 140.995 32.5238C140.88 32.466 140.764 32.4083 140.649 32.3505C140.418 32.235 140.188 32.1194 140.015 32.0039C139.899 31.9461 139.784 31.8306 139.669 31.7728C139.553 31.715 139.438 31.5995 139.323 31.5417C139.092 31.3684 138.861 31.2529 138.688 31.0796C138.458 31.3107 138.169 31.5995 137.939 31.8306L137.881 31.8884C138.746 32.986 139.669 34.3147 140.476 35.6433C140.707 35.99 140.937 36.3943 141.11 36.7409C141.168 36.8565 141.226 36.972 141.283 37.0876C141.456 37.4342 141.629 37.723 141.745 38.0119C141.745 38.0119 141.745 38.0119 141.745 38.0696C141.802 38.2429 141.86 38.4162 141.918 38.5318C141.86 38.6473 141.918 38.7051 141.918 38.7629Z" fill="#817B71"/>
<path d="M151.087 33.217C151.087 29.9242 146.243 28.5955 143.013 27.6712C142.206 27.4401 141.572 27.2668 141.11 27.0935C140.649 28.3644 139.957 29.5198 139.092 30.5596C139.265 30.6752 139.438 30.7907 139.669 30.964C139.784 31.0218 139.899 31.1373 140.015 31.1951C140.245 31.3684 140.534 31.4839 140.822 31.6572C140.995 31.7728 141.168 31.8306 141.341 31.9461C141.514 32.0616 141.687 32.1194 141.918 32.2349C142.148 32.3505 142.437 32.466 142.667 32.5816C142.783 32.6393 142.84 32.6393 142.898 32.6971C142.956 32.7549 143.071 32.7549 143.186 32.8126C143.244 32.8126 143.244 32.8704 143.302 32.8704C143.59 32.9859 143.936 33.1592 144.282 33.2748L144.397 33.3325C147.338 34.4879 149.76 34.8923 150.683 34.3146C150.914 34.1413 151.087 33.9102 151.087 33.6214C151.087 33.4481 151.087 33.3325 151.087 33.217Z" fill="#817B71"/>
<path d="M125.886 40.0338C125.944 40.9004 126.059 42.98 126.982 43.6155C127.27 43.7888 127.674 43.8466 128.135 43.6733C129.692 43.1533 130.096 40.2071 130.442 37.1454C130.557 36.2788 130.673 35.3545 130.788 34.488V34.1992C129.865 34.1414 128.943 34.0258 128.135 33.8525C128.078 33.9103 128.078 33.9681 128.02 34.0258C127.962 34.1414 127.847 34.2569 127.789 34.4302C127.674 34.6035 127.559 34.8346 127.443 35.0657C127.386 35.1812 127.27 35.3545 127.213 35.4701C127.155 35.5856 127.097 35.7589 127.04 35.8745C126.982 35.9322 126.982 36.0478 126.924 36.1055C126.924 36.1633 126.867 36.2788 126.809 36.3366C126.751 36.4521 126.751 36.5099 126.694 36.6254C126.694 36.6832 126.636 36.741 126.636 36.7988C126.578 36.9721 126.521 37.1454 126.463 37.3187C126.405 37.5498 126.29 37.7231 126.232 37.9541C126.232 38.0119 126.175 38.0697 126.175 38.1852C126.117 38.3585 126.059 38.4741 126.059 38.6474C126.059 38.7629 126.002 38.8207 126.002 38.9362C126.002 38.9362 126.002 38.9362 126.002 38.994C126.002 39.0517 126.002 39.1095 125.944 39.1673C125.944 39.2251 125.886 39.3406 125.886 39.3984C125.886 39.4561 125.886 39.5139 125.829 39.5717C125.829 39.745 125.771 39.8605 125.829 39.9183V39.976C125.886 39.8027 125.886 39.9183 125.886 40.0338Z" fill="#817B71"/>
<path d="M126.636 6.12347C126.636 6.18123 126.694 6.29677 126.751 6.35454C127.328 7.16331 127.905 8.14538 128.366 9.12745C128.424 9.30076 128.539 9.47406 128.597 9.64737C128.712 9.87845 128.77 10.0518 128.885 10.2828C128.943 10.3984 129 10.5717 129.058 10.6872C129.116 10.8027 129.173 10.9761 129.231 11.0916C129.289 11.1494 129.289 11.2071 129.289 11.2649C129.346 11.3804 129.346 11.496 129.404 11.6115C130.211 11.4382 131.019 11.3804 131.884 11.3804C131.999 11.3804 132.114 11.3804 132.172 11.3804C132.172 11.2649 132.172 11.2071 132.172 11.0916C132.172 10.9183 132.172 10.745 132.114 10.5717C132.114 10.1673 132.057 9.82068 131.999 9.41629V9.35853C131.941 8.95414 131.941 8.60753 131.884 8.20315C131.826 7.79876 131.768 7.45215 131.711 7.04777C131.711 6.87446 131.653 6.70115 131.595 6.47008C131.595 6.41231 131.595 6.35454 131.595 6.29677C131.538 5.83462 131.422 5.37247 131.307 4.96809C131.134 4.27486 130.961 3.58163 130.788 3.00394V2.88841C130.327 1.50195 129.75 0.577649 129.231 0.51988C128.712 0.404342 128.135 0.635418 127.674 1.15534C126.809 2.02187 126.175 3.75494 126.636 6.12347Z" fill="#817B71"/>
<path d="M120.523 4.15941C120.35 4.44826 120.523 5.02595 120.812 5.89248C120.985 6.47017 121.215 7.22117 121.388 8.0877C121.446 8.37654 121.561 8.66539 121.792 8.89646C121.907 9.012 121.965 9.12754 122.08 9.24308C122.196 9.35862 122.253 9.47415 122.369 9.58969C122.657 9.9363 122.945 10.3407 123.234 10.7451C123.637 11.3228 123.983 11.9004 124.329 12.4204C124.445 12.6514 124.618 12.8825 124.733 13.0558C124.848 13.2291 124.964 13.4602 125.079 13.6335C125.137 13.5757 125.137 13.5757 125.194 13.518C126.175 12.6514 127.328 12.016 128.597 11.6116C128.597 11.5538 128.597 11.4961 128.539 11.4961C128.481 11.3228 128.424 11.2072 128.366 11.0339C128.308 10.8606 128.193 10.6295 128.135 10.4562C128.078 10.2251 127.962 10.0518 127.847 9.82077C127.732 9.53192 127.559 9.24308 127.443 8.95423C127.328 8.78093 127.27 8.60762 127.155 8.37654C127.04 8.20324 126.982 8.0877 126.867 7.91439C126.578 7.39447 126.29 6.93232 125.944 6.47017L125.886 6.4124C124.329 4.27495 122.657 3.17734 121.446 3.46619C120.985 3.75503 120.639 3.98611 120.523 4.15941Z" fill="#817B71"/>
<path d="M136.266 43.6156C136.785 43.5 137.939 41.9403 137.189 40.8427C137.131 40.7271 136.843 40.5538 136.728 40.4961C136.67 40.4383 136.555 40.3805 136.497 40.3228C136.382 40.265 136.324 40.1494 136.266 40.0917L136.151 39.9761C136.093 39.9184 136.036 39.8606 135.978 39.7451C135.92 39.6873 135.863 39.6295 135.805 39.5718C135.747 39.4562 135.632 39.3984 135.574 39.2829L135.517 39.2251C135.459 39.1096 135.344 39.0518 135.286 38.9363C135.171 38.763 134.998 38.5319 134.882 38.3008C134.825 38.1275 134.709 38.012 134.652 37.8387C134.19 36.7988 133.787 35.5279 133.671 33.9104C133.21 34.0259 132.749 34.0837 132.23 34.1415V39.2251C132.23 39.514 132.287 39.8028 132.403 40.0917C133.556 42.6913 135.517 43.7889 136.266 43.6156Z" fill="#817B71"/>
<path d="M122.83 42.0557C123.522 42.1134 124.791 40.8425 125.079 39.8027C125.079 39.6871 125.137 39.6294 125.137 39.5138C125.137 39.3983 125.137 39.225 125.137 39.225C125.137 39.1672 125.137 39.1095 125.194 38.9939C125.194 38.9361 125.252 38.8206 125.252 38.7628C125.252 38.7051 125.31 38.6473 125.31 38.5318C125.31 38.474 125.367 38.3585 125.367 38.3007C125.54 37.6075 125.829 36.7987 126.232 35.9322C126.29 35.7589 126.405 35.5278 126.463 35.3545C126.521 35.2967 126.521 35.1812 126.578 35.1234C126.636 35.0079 126.636 34.9501 126.694 34.8346C126.751 34.719 126.809 34.5457 126.924 34.4302C126.982 34.3146 127.097 34.1413 127.155 34.0258C127.213 33.9103 127.27 33.7947 127.328 33.7369C127.386 33.6214 127.443 33.5636 127.501 33.5059C126.636 33.217 125.829 32.8126 125.137 32.2927L125.021 32.5238C124.964 32.6393 124.906 32.7549 124.848 32.8704C124.675 33.1015 124.56 33.3903 124.329 33.6792C124.214 33.7947 124.156 33.968 124.041 34.0836C123.926 34.1991 123.868 34.3724 123.753 34.4879C123.637 34.6612 123.522 34.8346 123.349 35.0079C123.234 35.1234 123.176 35.2389 123.061 35.3545C122.945 35.47 122.888 35.5856 122.772 35.7011C122.599 35.9322 122.369 36.1632 122.138 36.3943C122.023 36.5099 121.85 36.6832 121.677 36.7987C121.331 37.0875 121.1 37.4919 121.042 37.8963C120.754 39.4561 121.158 40.4381 121.504 41.0736C121.85 41.7091 122.484 42.0557 122.83 42.0557Z" fill="#817B71"/>
<path d="M140.822 41.1314H140.88C141.11 41.1314 141.283 41.0736 141.399 40.9581C141.572 40.7848 141.572 40.3804 141.456 39.8027V39.6871C141.399 39.4561 141.283 39.1672 141.168 38.8784C141.11 38.7628 141.11 38.7051 141.053 38.5895C141.053 38.5318 141.053 38.5318 140.995 38.474C140.937 38.3007 140.88 38.1852 140.822 38.0118C140.015 36.221 138.573 34.0258 137.189 32.2927C136.324 32.9282 135.459 33.3326 134.421 33.6792C134.421 33.7369 134.421 33.7369 134.421 33.7947C134.421 33.8525 134.421 33.8525 134.421 33.9103C134.421 33.968 134.421 34.0836 134.421 34.1413C134.421 34.3724 134.479 34.6035 134.479 34.8346C134.536 35.0656 134.536 35.2967 134.594 35.47C134.594 35.5856 134.652 35.7011 134.652 35.7589C134.767 36.1055 134.825 36.4521 134.94 36.7409C134.94 36.7987 134.998 36.9142 134.998 36.972C135.69 38.7051 136.728 39.6871 137.65 40.2071C138.688 40.7848 139.726 41.0736 140.822 41.1314Z" fill="#817B71"/>
<path d="M154.604 19.0637C154.547 18.5438 154.374 18.255 154.085 18.0239C153.393 17.504 149.587 17.4462 148.78 17.9083C148.665 17.9661 148.549 18.0816 148.434 18.1394C148.203 18.3127 147.973 18.486 147.684 18.6593C147.396 18.8326 147.165 19.0059 146.877 19.1215C146.704 19.237 146.473 19.3526 146.3 19.4681C146.185 19.5259 146.127 19.5836 146.012 19.6414C145.839 19.6992 145.724 19.8147 145.551 19.8725C145.493 19.8725 145.435 19.9303 145.378 19.988C145.205 20.0458 145.089 20.1613 144.916 20.2191C144.743 20.2769 144.628 20.3924 144.455 20.4502C144.282 20.5079 144.109 20.6235 143.936 20.6812C143.763 20.739 143.648 20.7968 143.475 20.8546C143.417 20.8546 143.359 20.9123 143.302 20.9123C143.071 21.0279 142.84 21.0856 142.61 21.2012C142.437 21.2589 142.321 21.3167 142.148 21.3167C142.091 21.3167 142.091 21.3167 142.033 21.3745C142.033 21.6055 142.033 21.8366 142.033 22.1255C143.013 22.1255 144.051 22.1255 145.032 22.1255C145.897 22.1255 146.762 22.1255 147.569 22.1255C148.03 22.1255 148.434 22.1255 148.838 22.1255C149.068 22.1255 149.299 22.1255 149.472 22.1255C149.53 22.1255 149.587 22.1255 149.645 22.1255C149.818 22.1255 149.991 22.1255 150.106 22.1255C150.164 22.1255 150.164 22.1255 150.222 22.1255C150.337 22.1255 150.452 22.1255 150.568 22.1255C151.721 22.0677 153.278 21.3167 154.085 20.3924C154.374 20.0458 154.662 19.5259 154.604 19.0637Z" fill="#817B71"/>
<path d="M116.025 37.8964C117.698 38.5318 119.37 37.6653 120.466 36.7988L120.581 36.741C120.812 36.5677 121.042 36.3944 121.273 36.1633C121.388 36.0478 121.504 35.99 121.561 35.8744C121.85 35.5856 122.138 35.2968 122.369 35.0079C122.484 34.8924 122.542 34.7768 122.657 34.7191C123.234 33.9681 123.753 33.2171 124.156 32.5239C124.272 32.3505 124.329 32.235 124.387 32.0617C124.387 32.0039 124.445 31.9462 124.445 31.9462C123.637 31.3107 123.003 30.5019 122.484 29.5776C122.369 29.6354 122.253 29.7509 122.08 29.8087C121.965 29.9242 121.792 29.982 121.677 30.0976C121.561 30.2131 121.388 30.2709 121.273 30.3864C121.158 30.4442 121.042 30.5597 120.869 30.6752L120.812 30.733C120.581 30.9063 120.293 31.1374 120.004 31.3685C119.658 31.6573 119.312 31.9462 118.966 32.235C118.736 32.4661 118.505 32.6394 118.274 32.8705C118.217 32.9282 118.101 33.0438 118.044 33.1015C117.928 33.2171 117.813 33.3326 117.698 33.4482C117.582 33.5637 117.409 33.737 117.294 33.8525C117.121 34.0258 117.006 34.1992 116.833 34.3147C116.717 34.4302 116.66 34.5458 116.544 34.6613C116.314 34.9501 116.141 35.1812 115.91 35.4701L115.795 35.6434C115.333 36.3944 115.16 36.9721 115.276 37.3764C115.391 37.5497 115.622 37.7808 116.025 37.8964Z" fill="#817B71"/>
<path d="M152.932 23.6274C152.932 23.4541 152.701 22.9919 150.625 22.8186H150.568C149.068 22.7031 147.165 22.7031 145.089 22.7608C144.224 22.7608 143.359 22.8186 142.494 22.8186H142.091C142.033 23.8585 141.86 24.9561 141.572 25.9959C141.514 26.1692 141.514 26.2847 141.456 26.4003C146.819 28.1911 150.106 26.5736 151.26 25.8226C152.355 25.0138 152.874 24.1473 152.932 23.6274Z" fill="#817B71"/>
<path d="M117.063 8.20308C116.025 9.41623 115.968 10.8605 116.775 12.5358L116.833 12.6513C116.89 12.7668 116.948 12.8824 117.006 12.9979C117.063 13.0557 117.063 13.1134 117.121 13.1134C117.236 13.2868 117.294 13.4023 117.409 13.5756C117.467 13.6911 117.582 13.8067 117.64 13.8644C117.755 14.0377 117.928 14.2111 118.044 14.3844C118.505 14.962 119.082 15.482 119.716 16.0019C119.889 16.1174 120.062 16.2907 120.235 16.4063C120.408 16.5218 120.581 16.6951 120.754 16.8107C120.869 16.8684 120.985 16.984 121.1 17.0417C121.158 17.0995 121.273 17.1573 121.388 17.215C121.446 17.2728 121.561 17.3306 121.677 17.3883C121.792 17.4461 121.907 17.5617 122.023 17.6194C122.08 17.6772 122.138 17.6772 122.253 17.735C122.83 16.464 123.58 15.3087 124.56 14.3266C124.329 13.9222 124.099 13.4601 123.81 12.9979C123.753 12.9401 123.753 12.8824 123.695 12.8246C123.522 12.5935 123.407 12.3624 123.234 12.0736C123.176 11.9581 123.061 11.8425 123.003 11.727C122.945 11.6115 122.83 11.4959 122.772 11.3804C122.715 11.2648 122.599 11.1493 122.542 11.0338C122.484 10.9182 122.369 10.8027 122.311 10.6871C121.85 10.1095 121.446 9.53177 120.985 9.06962C120.004 8.02978 119.139 7.56763 118.447 7.56763H118.39C117.813 7.56763 117.467 7.7987 117.063 8.20308Z" fill="#817B71"/>
<path d="M111.7 21.2011C111.758 21.1434 111.873 21.1434 111.931 21.0856C112.046 21.0278 112.162 21.0278 112.219 20.9701C112.45 20.9123 112.738 20.7968 112.969 20.739C113.084 20.6812 113.142 20.6812 113.257 20.6812C113.603 20.5657 114.007 20.5079 114.411 20.4501C115.795 20.2191 117.467 20.1613 119.428 20.2191C119.543 20.2191 119.716 20.2191 119.831 20.2191C120.293 20.2191 120.754 20.2768 121.273 20.2768H121.331C121.388 20.1035 121.388 19.988 121.446 19.8147C121.042 19.7569 120.639 19.6414 120.12 19.5836C119.774 19.5258 119.37 19.4103 119.024 19.3525C118.044 19.1215 116.89 18.8326 115.795 18.486C115.564 18.4282 115.333 18.3127 115.103 18.2549C114.699 18.1394 114.353 18.0238 114.007 17.8505C113.834 17.7928 113.719 17.735 113.546 17.6772C113.373 17.6195 113.2 17.5617 113.027 17.4462C112.681 17.2728 112.277 17.2728 111.873 17.3884C109.797 17.9661 108.817 19.0059 108.932 19.8724C109.105 20.6812 110.028 21.3167 111.7 21.2011Z" fill="#817B71"/>
<path d="M110.547 14.8465C110.662 15.1931 111.124 15.7708 112.681 16.5218L112.796 16.5796C113.2 16.7529 113.719 16.9839 114.295 17.215C114.584 17.3306 114.814 17.3883 115.103 17.5039C115.333 17.5616 115.564 17.6772 115.795 17.7349C115.968 17.7927 116.141 17.8505 116.314 17.9082C116.371 17.9082 116.429 17.9082 116.429 17.966C116.775 18.0815 117.179 18.1971 117.525 18.2549C117.871 18.3704 118.274 18.4282 118.62 18.5437C118.966 18.6592 119.312 18.717 119.658 18.7748C119.831 18.8325 120.004 18.8325 120.12 18.8903C120.35 18.9481 120.523 18.9481 120.754 19.0059C120.985 19.0636 121.215 19.1214 121.388 19.1214C121.504 19.1214 121.561 19.1214 121.677 19.1792C121.734 19.1792 121.734 19.1792 121.734 19.1792C121.792 18.9481 121.907 18.6592 121.965 18.4282C121.792 18.3126 121.561 18.1971 121.331 18.0815C120.696 17.6772 120.004 17.215 119.37 16.6951C119.255 16.5796 119.082 16.464 118.966 16.3485C118.793 16.2329 118.678 16.1174 118.563 15.9441C118.39 15.8286 118.274 15.6553 118.159 15.5397C117.928 15.3086 117.698 15.0776 117.467 14.7887C117.294 14.6154 117.179 14.3843 117.006 14.211C116.89 14.0955 116.833 13.98 116.717 13.8644C116.602 13.7489 116.256 13.229 116.141 13.229C115.218 12.7668 114.353 12.8246 113.488 12.8246C112.219 12.8246 111.239 13.1134 110.72 13.6333C110.432 13.9222 110.374 14.3266 110.547 14.8465Z" fill="#817B71"/>
<path d="M114.814 34.7768C115.16 34.7768 115.564 34.6613 115.795 34.3725C115.852 34.2569 115.91 34.1992 116.025 34.0836C116.141 33.9681 116.256 33.8525 116.371 33.6792C116.429 33.6215 116.487 33.5637 116.544 33.5059C116.717 33.3326 116.948 33.1015 117.121 32.9282C117.236 32.8127 117.294 32.6972 117.409 32.6394C117.525 32.5816 117.64 32.4661 117.698 32.3506C117.871 32.235 117.986 32.0617 118.159 31.9462C118.332 31.8306 118.447 31.6573 118.62 31.5418C118.966 31.2529 119.37 30.9063 119.716 30.6175C119.889 30.5019 120.062 30.3286 120.235 30.2131C120.408 30.0976 120.581 29.982 120.696 29.8665C120.869 29.7509 120.985 29.6354 121.158 29.5199C121.331 29.4043 121.446 29.2888 121.619 29.231C121.792 29.1155 121.965 29 122.138 28.8844C122.023 28.5956 121.85 28.249 121.734 27.9023C121.619 27.9601 121.504 28.0179 121.331 28.0757C120.466 28.5378 119.485 29.0577 118.39 29.5199C118.274 29.5776 118.101 29.6354 117.986 29.6932C117.871 29.751 117.698 29.8087 117.582 29.8665C117.294 29.982 117.006 30.0976 116.717 30.2131C116.544 30.2709 116.371 30.3864 116.141 30.4442C115.968 30.5019 115.795 30.5597 115.564 30.6175C115.391 30.6753 115.218 30.733 115.045 30.7908C114.814 30.8486 114.468 30.9641 114.238 31.0219C114.065 31.0796 113.834 31.1952 113.719 31.3107C112.565 32.235 111.989 33.1015 112.162 33.6792C112.392 34.3147 113.315 34.6613 114.814 34.7768Z" fill="#817B71"/>
<path d="M111.989 21.8945H111.931C110.489 22.5877 109.97 23.5698 110.143 25.0718C110.201 25.3029 110.316 26.0538 111.931 26.2849C112.392 26.3427 112.854 26.3427 113.373 26.2849C113.546 26.2849 113.719 26.2849 113.892 26.2272C114.122 26.2272 114.353 26.1694 114.641 26.1694C114.872 26.1694 115.103 26.1116 115.276 26.0538C115.391 26.0538 115.506 26.0538 115.564 25.9961C115.968 25.9383 116.314 25.8805 116.717 25.765C116.89 25.7072 117.121 25.7072 117.294 25.6495C117.467 25.5917 117.698 25.5339 117.871 25.5339C118.101 25.4762 118.274 25.4184 118.505 25.3606C118.966 25.2451 119.37 25.1295 119.831 25.014C120.177 24.8985 120.523 24.7829 120.869 24.7252C120.927 24.7252 121.042 24.6674 121.1 24.6674C120.985 23.4542 121.042 22.2411 121.273 21.028C116.775 20.7969 113.719 21.0857 111.989 21.8945Z" fill="#817B71"/>
<path d="M111.585 30.5597C112.046 30.733 112.738 30.733 113.661 30.5019L113.834 30.4441C114.007 30.3863 114.238 30.3286 114.411 30.2708C114.526 30.213 114.699 30.213 114.814 30.1553C114.987 30.0975 115.16 30.0397 115.333 29.982C115.737 29.8664 116.141 29.6931 116.544 29.5198C116.602 29.5198 116.66 29.462 116.717 29.462C116.833 29.4043 117.006 29.3465 117.121 29.2887C117.352 29.1732 117.525 29.1154 117.755 28.9999C118.39 28.711 118.966 28.4222 119.543 28.1334C119.716 28.0178 119.889 27.96 120.004 27.9023C120.062 27.8445 120.177 27.8445 120.235 27.7867C120.408 27.6712 120.581 27.6134 120.754 27.4979C120.869 27.4401 120.927 27.3824 121.042 27.3246C121.215 27.2668 121.331 27.1513 121.446 27.0935C121.388 26.9202 121.331 26.6891 121.273 26.5158C121.215 26.1692 121.1 25.7648 121.1 25.4182C120.696 25.5338 120.35 25.6493 119.947 25.7648C119.774 25.8226 119.601 25.8804 119.37 25.9381C118.966 26.0537 118.62 26.1692 118.217 26.227C118.044 26.2847 117.813 26.3425 117.64 26.3425C117.063 26.4581 116.487 26.5736 115.91 26.6891C115.737 26.7469 115.506 26.7469 115.333 26.8047C115.16 26.8047 114.93 26.8624 114.757 26.8624C114.584 26.9202 114.411 26.9202 114.238 26.9202C114.18 26.9202 114.065 26.9202 114.007 26.9202C113.43 26.978 112.854 26.978 112.335 26.978C111.989 26.978 111.643 27.0357 111.354 27.209C110.374 27.8445 109.797 28.5377 109.855 29.0577C110.086 29.6931 110.605 30.1553 111.585 30.5597Z" fill="#817B71"/>
</g>
<defs>
<clipPath id="clip0">
<rect width="173" height="58" fill="white"/>
</clipPath>
</defs>
</svg>
