<svg width="59" height="16" viewBox="0 0 59 16" fill="none" xmlns="http://www.w3.org/2000/svg">
<path d="M22.1302 0.282494L14.4993 15.757H9.52044L5.76489 3.40702C5.53749 2.64811 5.3395 2.36878 4.64652 2.04801C3.51401 1.52509 1.64387 1.03602 0 0.731702L0.110906 0.282494H8.1263C9.14641 0.282494 10.0649 0.85982 10.2983 1.85946L12.2827 10.8148L17.1815 0.282494H22.1302ZM28.8609 0.282494L24.9665 15.757H20.2564L24.1507 0.282494H28.8609ZM41.6374 10.7047C41.6572 6.62138 34.995 6.39488 35.0385 4.57021C35.0545 4.01566 35.6761 3.42505 37.0367 3.27415C37.7107 3.20013 39.5727 3.14097 41.6817 3.96694L42.5068 0.683617C41.3736 0.335324 39.9154 0 38.1015 0C33.4453 0 30.1698 2.1021 30.1438 5.11463C30.1133 7.34296 32.4832 8.58492 34.2655 9.32706C36.1014 10.085 36.717 10.5722 36.7085 11.2495C36.6954 12.2877 35.2425 12.7474 33.8915 12.7644C31.5227 12.7964 30.1494 12.2203 29.0541 11.7866L28.1992 15.1788C29.3012 15.6081 31.3321 15.981 33.4356 16C38.3854 16 41.6229 13.9219 41.6374 10.7047ZM53.9328 15.757H58.2875L54.4828 0.282494H50.4649C49.5587 0.282494 48.7972 0.729487 48.4593 1.4169L41.3918 15.757H46.3379L47.319 13.4455H53.3619L53.9328 15.757ZM48.6752 10.2745L51.1553 4.46328L52.5799 10.2745H48.6752Z" fill="#3C429A"/>
</svg>
