<svg width="42" height="17" viewBox="0 0 42 17" fill="none" xmlns="http://www.w3.org/2000/svg">
<g clip-path="url(#clip0)">
<path d="M19.8645 2.49655V6.79251H22.461C23.0793 6.79251 23.5908 6.5803 23.9956 6.15647C24.4115 5.73313 24.6189 5.22815 24.6189 4.64405C24.6189 4.07174 24.4115 3.57289 23.9956 3.14858C23.5907 2.71346 23.0793 2.49559 22.461 2.49559H19.8645V2.49655ZM19.8645 8.30505V13.2885H18.3138V0.984131H22.4278C23.4731 0.984131 24.3592 1.33966 25.0902 2.04964C25.8334 2.75963 26.204 3.62483 26.204 4.64405C26.204 5.68696 25.8334 6.55782 25.0902 7.25601C24.3712 7.9553 23.4831 8.30409 22.4278 8.30409H19.8645V8.30505Z" fill="#5F6368"/>
<path d="M27.7708 10.7105C27.7708 11.1236 27.942 11.4668 28.2854 11.7421C28.6288 12.0165 29.0295 12.1542 29.4907 12.1542C30.1433 12.1542 30.7232 11.9076 31.2349 11.4153C31.7464 10.922 32.0022 10.3447 32.0022 9.68084C31.519 9.29044 30.8441 9.09626 29.9792 9.09626C29.3499 9.09626 28.8243 9.25136 28.4034 9.56061C27.9822 9.86997 27.7708 10.2522 27.7708 10.7105ZM29.7776 4.59326C30.9246 4.59326 31.8288 4.90503 32.4925 5.52976C33.1561 6.1545 33.4864 7.01033 33.4864 8.09856V13.2886H32.0031V12.1203H31.9357C31.2952 13.082 30.4413 13.5628 29.3739 13.5628C28.4636 13.5628 27.7004 13.2886 27.0891 12.7388C26.4759 12.188 26.1697 11.5017 26.1697 10.6755C26.1697 9.80528 26.492 9.11273 27.1384 8.59741C27.7849 8.08209 28.6479 7.82371 29.7264 7.82371C30.6477 7.82371 31.407 7.99576 32.0021 8.33891V7.97773C32.0021 7.42802 31.7887 6.96163 31.3616 6.57772C30.9337 6.19346 30.4353 6.00228 29.8613 6.00228C28.9952 6.00228 28.3105 6.37429 27.805 7.11962L26.4385 6.24263C27.1928 5.14297 28.3045 4.59326 29.7776 4.59326Z" fill="#5F6368"/>
<path d="M42.0002 4.86816L36.8233 16.9998H35.2223L37.1446 12.7553L33.7389 4.86816H35.4257L37.8867 10.917H37.92L40.3136 4.86816H42.0002Z" fill="#5F6368"/>
<path d="M13.5968 7.23072C13.5968 6.73283 13.5555 6.2525 13.4774 5.79272H6.9361V8.51554H10.6826C10.522 9.40323 10.0355 10.1584 9.29745 10.6641V12.4324H11.5334C12.8427 11.2014 13.5968 9.38183 13.5968 7.23072Z" fill="#4285F4"/>
<path d="M6.93657 14.1403C8.80857 14.1403 10.3845 13.5136 11.5339 12.4327L9.29793 10.6644C8.67566 11.0918 7.87404 11.3415 6.93657 11.3415C5.12762 11.3415 3.59192 10.0982 3.04259 8.42285H0.73909V10.244C1.88053 12.554 4.2268 14.1403 6.93657 14.1403Z" fill="#34A853"/>
<path d="M3.0424 8.42279C2.90194 7.99584 2.82488 7.54015 2.82488 7.06956C2.82488 6.59944 2.90182 6.14375 3.0424 5.71632V3.89502H0.7389C0.267101 4.84956 0.000213623 5.92745 0.000213623 7.06956C0.000213623 8.21166 0.267101 9.29052 0.7389 10.244L3.0424 8.42279Z" fill="#FABB05"/>
<path d="M6.93658 2.7982C7.95865 2.7982 8.87503 3.15626 9.59758 3.85854V3.85951L11.5773 1.8415C10.3749 0.700479 8.80751 -0.000244141 6.93658 -0.000244141C4.2268 -0.000244141 1.88053 1.58516 0.73909 3.89498L3.04259 5.71628C3.59192 4.04094 5.1275 2.7982 6.93658 2.7982Z" fill="#E94235"/>
</g>
<defs>
<clipPath id="clip0">
<rect width="42" height="17" fill="white"/>
</clipPath>
</defs>
</svg>
