<svg width="26" height="20" viewBox="0 0 26 20" fill="none" xmlns="http://www.w3.org/2000/svg">
<g clip-path="url(#clip0)">
<path d="M4.69468 19.9507V18.6234C4.69468 18.1151 4.38406 17.7833 3.85458 17.7833C3.58632 17.7833 3.30393 17.8751 3.0992 18.1575C2.94389 17.9175 2.72504 17.7833 2.39324 17.7833C2.17439 17.7833 1.94848 17.8469 1.77199 18.094V17.8257H1.31311V19.9507H1.77905V18.7788C1.77905 18.4046 1.97672 18.2281 2.28734 18.2281C2.59797 18.2281 2.75328 18.4258 2.75328 18.7788V19.9507H3.21922V18.7788C3.21922 18.4046 3.43807 18.2281 3.72751 18.2281C4.03814 18.2281 4.19345 18.4258 4.19345 18.7788V19.9507H4.69468ZM11.5778 17.8257H10.8225V17.1833H10.3565V17.8257H9.93294V18.2493H10.3565V19.2235C10.3565 19.7106 10.5542 20.0001 11.0837 20.0001C11.2813 20.0001 11.5072 19.9365 11.6555 19.8448L11.5214 19.4494C11.3872 19.5412 11.2319 19.5624 11.126 19.5624C10.9072 19.5624 10.8154 19.4282 10.8154 19.2094V18.2563H11.5708L11.5778 17.8257ZM15.5101 17.7833C15.2418 17.7833 15.0653 17.9175 14.9594 18.094V17.8257H14.4935V19.9507H14.9594V18.7576C14.9594 18.4046 15.1147 18.2069 15.4042 18.2069C15.4959 18.2069 15.6018 18.2281 15.6936 18.2493L15.8278 17.8045C15.736 17.7833 15.6018 17.7833 15.5101 17.7833ZM9.55878 18.0022C9.33993 17.8469 9.02931 17.7833 8.6975 17.7833C8.16803 17.7833 7.81505 18.0516 7.81505 18.4681C7.81505 18.8211 8.08332 19.0188 8.54219 19.0894L8.76104 19.1106C9.00107 19.1529 9.1352 19.2235 9.1352 19.3294C9.1352 19.4847 8.95871 19.5977 8.64809 19.5977C8.33746 19.5977 8.09743 19.4847 7.94212 19.3788L7.72327 19.7318C7.9633 19.9083 8.2951 20.0001 8.62691 20.0001C9.24816 20.0001 9.60114 19.7106 9.60114 19.3153C9.60114 18.9411 9.31169 18.7435 8.874 18.6729L8.65515 18.6517C8.45748 18.6305 8.30216 18.5881 8.30216 18.454C8.30216 18.2987 8.45748 18.214 8.6975 18.214C8.96577 18.214 9.22698 18.3269 9.36111 18.3905L9.55878 18.0022ZM21.9061 17.7833C21.6378 17.7833 21.4614 17.9175 21.3555 18.094V17.8257H20.8895V19.9507H21.3555V18.7576C21.3555 18.4046 21.5108 18.2069 21.8002 18.2069C21.892 18.2069 21.9979 18.2281 22.0897 18.2493L22.2238 17.8045C22.125 17.7833 21.9908 17.7833 21.9061 17.7833ZM15.976 18.8847C15.976 19.5271 16.4208 19.993 17.1055 19.993C17.4162 19.993 17.635 19.9295 17.8609 19.753L17.6421 19.3788C17.4656 19.513 17.2891 19.5765 17.0914 19.5765C16.7173 19.5765 16.449 19.3082 16.449 18.8917C16.449 18.4964 16.7173 18.2281 17.0914 18.2069C17.2891 18.2069 17.4656 18.2705 17.6421 18.4046L17.8609 18.0304C17.6421 17.8539 17.4162 17.7904 17.1055 17.7904C16.4208 17.7833 15.976 18.2493 15.976 18.8847ZM20.2683 18.8847V17.8257H19.8023V18.094C19.647 17.8963 19.4282 17.7833 19.1387 17.7833C18.5387 17.7833 18.0798 18.2493 18.0798 18.8917C18.0798 19.5341 18.5457 20.0001 19.1387 20.0001C19.4494 20.0001 19.6682 19.8871 19.8023 19.6895V19.9577H20.2683V18.8847ZM18.5669 18.8847C18.5669 18.5105 18.8069 18.1999 19.2093 18.1999C19.5835 18.1999 19.8518 18.4893 19.8518 18.8847C19.8518 19.2588 19.5835 19.5694 19.2093 19.5694C18.8069 19.5483 18.5669 19.2659 18.5669 18.8847ZM13.011 17.7833C12.3897 17.7833 11.952 18.2281 11.952 18.8917C11.952 19.5553 12.3968 20.0001 13.0392 20.0001C13.3498 20.0001 13.6604 19.9083 13.9005 19.7106L13.6816 19.3788C13.5051 19.513 13.2863 19.5977 13.0604 19.5977C12.7709 19.5977 12.4885 19.4635 12.4179 19.0894H13.9852V18.9129C14.0064 18.221 13.611 17.7833 13.011 17.7833ZM13.011 18.1787C13.3004 18.1787 13.4981 18.3552 13.5404 18.687H12.4321C12.4815 18.4046 12.6791 18.1787 13.011 18.1787ZM24.5394 18.8847V16.9856H24.0734V18.094C23.9181 17.8963 23.6993 17.7833 23.4098 17.7833C22.8097 17.7833 22.3509 18.2493 22.3509 18.8917C22.3509 19.5341 22.8168 20.0001 23.4098 20.0001C23.7204 20.0001 23.9393 19.8871 24.0734 19.6895V19.9577H24.5394V18.8847ZM22.8309 18.8847C22.8309 18.5105 23.071 18.1999 23.4734 18.1999C23.8475 18.1999 24.1158 18.4893 24.1158 18.8847C24.1158 19.2588 23.8475 19.5694 23.4734 19.5694C23.078 19.5483 22.8309 19.2659 22.8309 18.8847ZM7.30675 18.8847V17.8257H6.84082V18.094C6.6855 17.8963 6.46666 17.7833 6.17721 17.7833C5.57714 17.7833 5.11826 18.2493 5.11826 18.8917C5.11826 19.5341 5.5842 20.0001 6.17721 20.0001C6.48783 20.0001 6.70668 19.8871 6.84082 19.6895V19.9577H7.30675V18.8847ZM5.5842 18.8847C5.5842 18.5105 5.82423 18.1999 6.22663 18.1999C6.60079 18.1999 6.86906 18.4893 6.86906 18.8847C6.86906 19.2588 6.60079 19.5694 6.22663 19.5694C5.82423 19.5483 5.5842 19.2659 5.5842 18.8847Z" fill="#333333"/>
<path d="M16.3784 1.70142H9.41052V14.2182H16.3784V1.70142Z" fill="#FF5F00"/>
<path d="M9.84822 7.96329C9.84822 5.42181 11.0413 3.16273 12.8768 1.70138C11.5284 0.642429 9.82704 0 7.96329 0C3.56513 0 0 3.55807 0 7.96329C0 12.3615 3.55807 15.9266 7.96329 15.9266C9.81998 15.9266 11.5214 15.2842 12.8768 14.2252C11.0413 12.785 9.84822 10.5048 9.84822 7.96329Z" fill="#EB001B"/>
<path d="M25.7748 7.96329C25.7748 12.3615 22.2167 15.9266 17.8115 15.9266C15.9548 15.9266 14.2534 15.2842 12.8979 14.2252C14.7546 12.7639 15.9265 10.5118 15.9265 7.96329C15.9265 5.42181 14.7335 3.16273 12.8979 1.70138C14.2463 0.642429 15.9477 0 17.8115 0C22.2167 0 25.7748 3.57925 25.7748 7.96329Z" fill="#F79E1B"/>
</g>
<defs>
<clipPath id="clip0">
<rect width="25.7748" height="20" fill="white"/>
</clipPath>
</defs>
</svg>
