<svg width="120" height="29" viewBox="0 0 120 29" fill="none" xmlns="http://www.w3.org/2000/svg">
<g clip-path="url(#clip0)">
<path d="M105.966 0.512695C108.146 0.512695 110.219 1.00715 112.08 1.89163C112.372 2.022 112.665 2.17804 112.956 2.33423L111.68 3.45337L109.768 1.50175L106.472 4.36381L104.531 2.30787L98.4709 7.64237L102.351 11.8318L100.836 13.1325L104.664 17.3219L103.149 18.6221L108.625 24.581L111.866 21.6665L114.685 24.7898C114.126 25.2062 113.515 25.6234 112.851 25.9871C110.831 27.1058 108.491 27.7551 105.993 27.7551C98.3108 27.7551 92.0655 21.6415 92.0655 14.1222C92.0384 6.65372 98.2848 0.512695 105.966 0.512695ZM103.414 13.2889L106.737 10.3745L109.714 13.6269L106.391 16.5412L103.414 13.2889ZM105.78 18.9096L109.076 15.9693L112.08 19.2215L108.757 22.1361L105.78 18.9096ZM101.05 7.7468L104.372 4.83232L107.348 8.08481L104.026 10.9991L101.05 7.7468ZM107.135 6.18506L109.608 3.99944L111.841 6.41945L109.369 8.63088L107.135 6.18506ZM111.548 16.203L114.02 14.0172L116.253 16.4625L113.78 18.6496L111.548 16.203ZM113.727 21.1214L116.2 18.9352L118.431 21.3551L115.96 23.5663L113.727 21.1214ZM114.738 9.88L116.385 8.42269L117.873 10.0366L116.226 11.4933L114.738 9.88ZM112.611 5.06617L114.259 3.58334L115.748 5.22235L114.099 6.67952L112.611 5.06617ZM116.837 14.6942L118.485 13.2371L120 14.8504L118.326 16.3072L116.837 14.6942ZM109.422 11.0772L111.894 8.89149L114.126 11.311L111.655 13.4971L109.422 11.0772Z" fill="#036CB5"/>
<mask id="mask0" mask-type="alpha" maskUnits="userSpaceOnUse" x="0" y="6" width="15" height="13">
<path d="M0 6.17285V18.7501H14.5278V6.17285H0Z" fill="white"/>
</mask>
<g mask="url(#mask0)">
<path d="M7.29079 9.8971H7.16543L4.81171 18.7501H2.88788L0 6.17285H1.99608L3.99263 15.5576H4.11731L6.43419 6.17285H8.02114L10.4989 15.5576H10.6237L12.4421 6.17285H14.5278L11.6392 18.7501H9.71394L7.29079 9.8971Z" fill="#036CB5"/>
</g>
<path d="M17.0602 13.3958H21.1414C21.0528 11.5338 20.1432 10.7894 19.181 10.7894C18.0937 10.7894 17.2554 11.6229 17.0602 13.3958ZM22.5672 16.7318V18.0802C21.7652 18.5413 20.6963 18.8963 19.4121 18.8963C16.4183 18.8963 15.1885 17.0514 15.1885 14.249C15.1885 11.5515 16.5607 9.6001 19.2345 9.6001C21.462 9.6001 22.8354 11.038 22.8354 13.9288V14.5852H17.0245C17.0245 16.7133 17.8974 17.6537 19.734 17.6537C20.6963 17.6537 21.5875 17.3161 22.5672 16.7318Z" fill="#036CB5"/>
<path d="M26.9814 17.4739C27.5519 17.7222 28.1763 17.7589 28.6227 17.7589C29.9414 17.7589 30.9385 16.9417 30.9385 14.0687C30.9385 11.8158 30.1187 11.0885 28.9249 11.0885C28.2113 11.0885 27.6946 11.2842 26.9814 11.6737V17.4739ZM27.0002 10.3614C27.5336 10.0785 28.4425 9.70466 29.4055 9.70466C31.616 9.70466 32.8105 11.2302 32.8105 14.0687C32.8105 17.3862 31.2059 19.0005 28.6227 19.0005C27.6772 19.0005 26.2156 18.6988 25.1455 18.1299V5.74912L27.0002 5.30627V10.3614Z" fill="#036CB5"/>
<path d="M40.8333 16.0815H40.9226L44.7363 6.16516H46.9478V18.7433H45.0228V9.62462H44.862L41.2252 18.7433H40.0855L36.4478 9.8378H36.288V18.7433H34.6836V6.16516H36.8411L40.8333 16.0815Z" fill="#036CB5"/>
<path d="M54.8132 14.2484C54.8132 11.8538 53.8335 10.8431 52.6215 10.8431C51.4454 10.8431 50.4285 11.8538 50.4285 14.2484C50.4285 16.679 51.3566 17.6537 52.6215 17.6537C53.8864 17.6537 54.8132 16.679 54.8132 14.2484ZM48.5576 14.2484C48.5576 11.1429 50.2693 9.6001 52.6215 9.6001C54.9751 9.6001 56.6858 11.1429 56.6858 14.2484C56.6858 17.2812 55.0639 18.8963 52.6215 18.8963C50.1796 18.8963 48.5576 17.2812 48.5576 14.2484Z" fill="#036CB5"/>
<path d="M58.0957 10.9138C58.8977 10.4341 60.5918 9.6001 62.6412 9.6001C64.78 9.6001 65.5807 10.4341 65.5807 12.2607V18.6833H63.7282V12.6693C63.7282 11.2682 63.0342 11.0198 62.124 11.0198C61.4119 11.0198 60.5017 11.3396 59.9496 11.6589V18.6833H58.0957V10.9138Z" fill="#036CB5"/>
<path d="M69.504 13.3958H73.5855C73.4978 11.5338 72.5877 10.7894 71.6251 10.7894C70.5375 10.7894 69.7009 11.6229 69.504 13.3958ZM75.0112 16.7318V18.0802C74.2095 18.5413 73.14 18.8963 71.8563 18.8963C68.8635 18.8963 67.6328 17.0514 67.6328 14.249C67.6328 11.5515 69.0046 9.6001 71.6786 9.6001C73.9075 9.6001 75.2806 11.038 75.2806 13.9288V14.5852H69.4689C69.4689 16.7133 70.3425 17.6537 72.1785 17.6537C73.14 17.6537 74.0326 17.3161 75.0112 16.7318Z" fill="#036CB5"/>
<path d="M82.6851 9.6001H84.5928L81.3663 18.4686C80.4738 20.9169 79.3877 22.1942 77.3382 22.1942V20.7406C78.551 20.7406 79.2985 19.7822 79.7273 18.4686L76.3047 9.6001H78.2658L80.5472 16.128H80.6541L82.6851 9.6001Z" fill="#036CB5"/>
<path d="M19.2535 26.9256V26.1596C19.9144 26.492 20.5434 26.6588 21.1394 26.6588C21.6357 26.6588 22.016 26.5687 22.2817 26.3867C22.5475 26.2059 22.6805 25.9616 22.6805 25.6526C22.6805 25.3438 22.5713 25.112 22.3526 24.9579C22.1346 24.804 21.7269 24.6134 21.1307 24.3877C20.9238 24.3107 20.7916 24.2605 20.7319 24.2366C20.6731 24.2134 20.558 24.1653 20.3865 24.0944C20.2155 24.0236 20.1034 23.9697 20.0504 23.9343C19.9971 23.8977 19.9074 23.844 19.7802 23.7738C19.6534 23.7018 19.5679 23.6384 19.5233 23.583C19.4795 23.526 19.4186 23.454 19.3418 23.3681C19.2652 23.2824 19.2134 23.1973 19.1867 23.1106C19.1604 23.0247 19.1349 22.9252 19.1116 22.8121C19.0882 22.6989 19.0762 22.5776 19.0762 22.447C19.0762 21.9422 19.2638 21.5367 19.6384 21.2276C20.0137 20.9196 20.5313 20.7651 21.1928 20.7651C21.777 20.7651 22.359 20.8717 22.937 21.0856V21.8952C22.3763 21.6218 21.8155 21.4864 21.2546 21.4864C20.8591 21.4864 20.5639 21.5682 20.3691 21.7342C20.1742 21.9002 20.0767 22.1199 20.0767 22.3933C20.0767 22.6843 20.1742 22.9049 20.3691 23.0567C20.5639 23.2089 20.9124 23.3766 21.4143 23.56C22.2759 23.8747 22.8694 24.1595 23.1938 24.4151C23.5188 24.6695 23.6811 25.0504 23.6811 25.5542C23.6811 26.083 23.4582 26.5152 23.0125 26.8505C22.5667 27.1858 21.9544 27.3536 21.1749 27.3536C20.4609 27.3536 19.8202 27.2104 19.2535 26.9256ZM28.2637 27.2188H27.4226L27.3605 26.7024C26.8524 27.1184 26.3449 27.3264 25.8372 27.3264C25.4124 27.3264 25.0832 27.2124 24.8502 26.9833C24.6165 26.7548 24.5001 26.4663 24.5001 26.1152C24.5001 25.9309 24.5339 25.7548 24.6019 25.5856C24.6699 25.4162 24.7822 25.252 24.9384 25.0918C25.0948 24.9313 25.3309 24.8025 25.6467 24.7042C25.9624 24.6057 26.342 24.5571 26.7849 24.5571H27.3341V24.3167C27.3341 23.9191 27.2603 23.6484 27.1126 23.5022C26.9646 23.3567 26.7168 23.284 26.3687 23.284C25.9436 23.284 25.421 23.4583 24.8014 23.8094V23.0973C25.439 22.8066 26.0645 22.66 26.6784 22.66C27.2745 22.66 27.6882 22.7824 27.918 23.0263C28.1486 23.269 28.2637 23.6376 28.2637 24.1291V27.2188ZM27.3429 25.18H26.8732C25.9049 25.18 25.421 25.4682 25.421 26.0441C25.421 26.2466 25.4857 26.392 25.6158 26.4845C25.7459 26.5768 25.9083 26.6223 26.1033 26.6223C26.3507 26.6223 26.59 26.5629 26.8202 26.4439C27.0505 26.3259 27.2249 26.1895 27.3429 26.035V25.18ZM29.7027 29V23.3113C29.9625 23.1149 30.2691 22.957 30.6237 22.8385C30.9781 22.7207 31.3258 22.66 31.6687 22.66C32.8962 22.66 33.5105 23.4054 33.5105 24.8958C33.5105 25.6673 33.3512 26.2579 33.0321 26.6668C32.7135 27.0768 32.2564 27.2806 31.6596 27.2806C31.2462 27.2806 30.9009 27.1768 30.6237 26.9703V29H29.7027ZM30.6148 23.613V26.3117C30.7329 26.424 30.8817 26.5076 31.0618 26.5644C31.242 26.6207 31.4001 26.6488 31.5357 26.6488C31.8602 26.6488 32.1158 26.5234 32.3019 26.2712C32.4878 26.0184 32.5804 25.56 32.5804 24.8958C32.5804 24.3556 32.485 23.9598 32.2931 23.7119C32.1012 23.4617 31.8515 23.3377 31.5444 23.3377C31.1966 23.3377 30.8867 23.4291 30.6148 23.613ZM35.6226 22.7058V27.2188H34.7017V22.9279L35.6226 22.7058ZM34.5599 21.3963C34.5599 21.2361 34.6203 21.0956 34.7412 20.9732C34.8626 20.8516 35.0028 20.7905 35.1616 20.7905C35.3214 20.7905 35.4616 20.8516 35.5829 20.9732C35.7039 21.0956 35.7643 21.2361 35.7643 21.3963C35.7643 21.5565 35.7039 21.698 35.5829 21.8201C35.4616 21.9406 35.3214 22.0017 35.1616 22.0017C35.0028 22.0017 34.8626 21.9406 34.7412 21.8201C34.6203 21.698 34.5599 21.5565 34.5599 21.3963ZM39.0717 26.7024C39.4971 26.7024 39.9659 26.548 40.4797 26.24V26.9166C40.0076 27.19 39.485 27.3264 38.9124 27.3264C38.1921 27.3264 37.6625 27.1215 37.323 26.7117C36.9834 26.3019 36.8137 25.7294 36.8137 24.9934C36.8137 24.2927 36.988 23.7282 37.3359 23.3023C37.6846 22.875 38.1801 22.66 38.8235 22.66C39.3907 22.66 39.83 22.8446 40.1436 23.213C40.4563 23.5815 40.6123 24.1208 40.6123 24.8329V25.1628H37.7258C37.7258 25.6913 37.8351 26.0806 38.0533 26.3283C38.2718 26.5787 38.6113 26.7024 39.0717 26.7024ZM38.7969 23.2576C38.5199 23.2576 38.2864 23.3675 38.0975 23.5862C37.9089 23.8062 37.7905 24.1333 37.7434 24.5653H39.7712C39.7474 24.1266 39.6444 23.7996 39.4612 23.583C39.2785 23.3658 39.0571 23.2576 38.7969 23.2576ZM41.7856 27.2188V23.3197C42.5117 22.8801 43.2645 22.66 44.0441 22.66C44.5695 22.66 44.9441 22.7677 45.1684 22.9816C45.3928 23.1954 45.505 23.5334 45.505 23.996V27.2188H44.5842V24.2009C44.5842 23.8747 44.5162 23.6548 44.3805 23.5426C44.2446 23.4291 44.047 23.3732 43.787 23.3732C43.433 23.3732 43.0727 23.4805 42.7069 23.6939V27.2188H41.7856ZM47.8206 22.875H49.2198L48.9983 23.4805H47.8206V25.8302C47.8206 26.424 48.0746 26.7207 48.5821 26.7207C48.7769 26.7207 48.9746 26.6795 49.176 26.5961V27.1654C48.8984 27.2725 48.5675 27.3264 48.1838 27.3264C47.741 27.3264 47.4164 27.2 47.2096 26.947C47.0031 26.6958 46.8997 26.3646 46.8997 25.954V22.2867L47.8206 21.6183V22.875ZM51.0225 22.7058V27.2188H50.1012V22.9279L51.0225 22.7058ZM49.9597 21.3963C49.9597 21.2361 50.0203 21.0956 50.1406 20.9732C50.2616 20.8516 50.4018 20.7905 50.5616 20.7905C50.7208 20.7905 50.8614 20.8516 50.982 20.9732C51.1033 21.0956 51.1638 21.2361 51.1638 21.3963C51.1638 21.5565 51.1033 21.698 50.982 21.8201C50.8614 21.9406 50.7208 22.0017 50.5616 22.0017C50.4018 22.0017 50.2616 21.9406 50.1406 21.8201C50.0203 21.698 49.9597 21.5565 49.9597 21.3963ZM57.2918 23.0169V23.7282C56.8489 23.4318 56.4001 23.284 55.946 23.284C55.7157 23.284 55.5268 23.3285 55.3788 23.4178C55.2315 23.5061 55.1576 23.6492 55.1576 23.844C55.1576 24.0291 55.2386 24.1755 55.4009 24.2853C55.5634 24.3954 55.8188 24.5067 56.1674 24.6187C56.3622 24.6841 56.508 24.7349 56.6052 24.7702C56.703 24.8067 56.831 24.8662 56.9907 24.9487C57.15 25.0322 57.2698 25.1145 57.3493 25.1982C57.429 25.2816 57.5013 25.3908 57.5664 25.5277C57.6313 25.6642 57.6634 25.8151 57.6634 25.9814C57.6634 26.3913 57.4996 26.7176 57.1725 26.961C56.8447 27.2043 56.4061 27.3264 55.8574 27.3264C55.2432 27.3264 54.7322 27.1958 54.3251 26.9339V26.24C54.8445 26.548 55.3199 26.7024 55.7512 26.7024C56.4001 26.7024 56.725 26.4894 56.725 26.0615C56.725 25.9788 56.7058 25.901 56.6674 25.8302C56.629 25.759 56.5848 25.7012 56.5348 25.6565C56.4844 25.612 56.4031 25.5618 56.2909 25.5045C56.1786 25.4493 56.0844 25.4079 56.0076 25.3808C55.931 25.3543 55.81 25.3112 55.6448 25.252C55.4025 25.1628 55.2107 25.086 55.0688 25.0203C54.927 24.9545 54.7858 24.8702 54.644 24.7667C54.502 24.6629 54.3985 24.5388 54.3341 24.3968C54.2693 24.2549 54.2367 24.0852 54.2367 23.8895C54.2367 23.6402 54.2956 23.4271 54.4137 23.2495C54.5317 23.0702 54.6855 22.9426 54.874 22.8658C55.063 22.7884 55.2357 22.7346 55.3921 22.7058C55.5488 22.6751 55.7036 22.66 55.8574 22.66C56.3593 22.66 56.8373 22.779 57.2918 23.0169ZM62.1842 27.2188H61.3431L61.2808 26.7024C60.7728 27.1184 60.2655 27.3264 59.758 27.3264C59.333 27.3264 59.0038 27.2124 58.7706 26.9833C58.5371 26.7548 58.4208 26.4663 58.4208 26.1152C58.4208 25.9309 58.4547 25.7548 58.5227 25.5856C58.5905 25.4162 58.7027 25.252 58.8592 25.0918C59.016 24.9313 59.2516 24.8025 59.5674 24.7042C59.8834 24.6057 60.263 24.5571 60.7051 24.5571H61.2547V24.3167C61.2547 23.9191 61.1805 23.6484 61.0337 23.5022C60.8852 23.3567 60.6374 23.284 60.2897 23.284C59.8643 23.284 59.3417 23.4583 58.722 23.8094V23.0973C59.3598 22.8066 59.9852 22.66 60.5991 22.66C61.1957 22.66 61.6083 22.7824 61.8388 23.0263C62.0689 23.269 62.1842 23.6376 62.1842 24.1291V27.2188ZM61.264 25.18H60.7942C59.8259 25.18 59.3417 25.4682 59.3417 26.0441C59.3417 26.2466 59.4067 26.392 59.5364 26.4845C59.6666 26.5768 59.8284 26.6223 60.0237 26.6223C60.2714 26.6223 60.5099 26.5629 60.741 26.4439C60.9711 26.3259 61.1456 26.1895 61.264 26.035V25.18ZM64.5004 22.875H65.8994L65.6774 23.4805H64.5004V25.8302C64.5004 26.424 64.754 26.7207 65.2611 26.7207C65.4562 26.7207 65.6533 26.6795 65.8549 26.5961V27.1654C65.5773 27.2725 65.2472 27.3264 64.8623 27.3264C64.4203 27.3264 64.0958 27.2 63.8891 26.947C63.6823 26.6958 63.5786 26.3646 63.5786 25.954V22.2867L64.5004 21.6183V22.875Z" fill="#B6B6B6"/>
</g>
<defs>
<clipPath id="clip0">
<rect width="120" height="29" fill="white"/>
</clipPath>
</defs>
</svg>
