<svg width="40" height="19" viewBox="0 0 40 19" fill="none" xmlns="http://www.w3.org/2000/svg">
<g clip-path="url(#clip0)">
<path d="M11.9565 4.8984C11.8025 5.04039 11.6486 5.17592 11.5011 5.32435C10.9687 5.8342 10.5646 6.4215 10.4235 7.15723C10.231 8.17693 10.4363 9.11274 11.0521 9.95173C11.36 10.3712 11.7256 10.7197 12.2131 10.9198C12.2708 10.9456 12.3285 10.965 12.3991 10.9908C12.3349 11.165 12.2772 11.3328 12.2131 11.5006C11.8154 12.4687 11.3022 13.3658 10.5966 14.1403C10.4684 14.2822 10.3144 14.4178 10.1669 14.5404C9.65373 14.9599 9.07644 15.1212 8.42217 14.9276C8.09504 14.8308 7.77432 14.7275 7.4536 14.6243C7.12005 14.521 6.78651 14.4371 6.43372 14.4307C5.99754 14.4178 5.59985 14.5533 5.19574 14.7017C4.88785 14.8179 4.58638 14.9341 4.27207 15.0051C3.77817 15.1212 3.32916 14.9728 2.91864 14.6888C2.50171 14.4049 2.17458 14.037 1.89234 13.6304C1.18035 12.6042 0.635127 11.5006 0.30158 10.2938C0.00651861 9.22245 -0.0768681 8.13176 0.0899054 7.02816C0.237436 6.05363 0.59664 5.17592 1.27656 4.45309C1.98214 3.70445 2.84808 3.39467 3.86797 3.49147C4.3747 3.5431 4.85578 3.69154 5.34327 3.83352C5.54853 3.89161 5.75379 3.93678 5.95905 3.98842C6.25411 4.06586 6.54276 4.02714 6.82499 3.94324C7.22268 3.82707 7.62037 3.69154 8.01806 3.57537C8.60819 3.40112 9.21114 3.34949 9.8205 3.46566C10.6095 3.62055 11.2381 4.0465 11.7576 4.6467C11.8218 4.72415 11.8859 4.79514 11.9501 4.87259C11.9501 4.87904 11.9501 4.88549 11.9565 4.8984Z" fill="#050404"/>
<path d="M8.98635 0C8.99277 0.174253 9.01843 0.342052 9.0056 0.503397C8.94145 1.38757 8.60149 2.14912 7.99213 2.78804C7.71631 3.07846 7.41483 3.33016 7.0428 3.4786C6.72208 3.60768 6.38853 3.63349 6.04857 3.65931C6.04216 3.65931 6.03574 3.65285 6.02933 3.65285C6.08064 1.67799 7.06846 0.400136 8.98635 0Z" fill="#050404"/>
<path d="M16.1769 2.34925C16.9595 2.22017 17.9858 2.104 19.2943 2.104C20.8979 2.104 22.0717 2.47832 22.8222 3.15597C23.5149 3.75618 23.9255 4.67907 23.9255 5.80203C23.9255 6.94436 23.5919 7.84789 22.9569 8.50618C22.0974 9.42907 20.699 9.89375 19.1147 9.89375C18.6272 9.89375 18.1846 9.87438 17.8062 9.78403V14.8503H16.1833V2.34925H16.1769ZM17.7997 8.44809C18.1525 8.5449 18.6015 8.57717 19.1403 8.57717C21.0967 8.57717 22.2962 7.62201 22.2962 5.87303C22.2962 4.20149 21.1224 3.39476 19.3264 3.39476C18.6144 3.39476 18.0756 3.45285 17.7933 3.52384V8.44809H17.7997Z" fill="#050404"/>
<path d="M29.7754 14.8501L29.6471 13.7078H29.5894C29.0827 14.4242 28.1141 15.0566 26.8248 15.0566C24.9967 15.0566 24.0602 13.7594 24.0602 12.4493C24.0602 10.255 26.0038 9.04815 29.4868 9.06751V8.88035C29.4868 8.13171 29.2815 6.77641 27.4342 6.77641C26.5939 6.77641 25.7151 7.04101 25.0801 7.45406L24.7081 6.36337C25.4521 5.87288 26.5362 5.55664 27.6779 5.55664C30.4425 5.55664 31.1096 7.45406 31.1096 9.27403V12.6752C31.1096 13.4625 31.1481 14.2305 31.2571 14.8501H29.7754ZM29.5381 10.2163C27.7485 10.1776 25.7151 10.5003 25.7151 12.2621C25.7151 13.3335 26.4271 13.8369 27.261 13.8369C28.4348 13.8369 29.1853 13.0882 29.4419 12.3138C29.4996 12.146 29.5381 11.9588 29.5381 11.791V10.2163Z" fill="#050404"/>
<path d="M33.3032 5.76318L35.2788 11.1327C35.4841 11.733 35.7086 12.4493 35.8561 12.9914H35.8946C36.0614 12.4493 36.2474 11.7523 36.4719 11.094L38.2615 5.76318H39.9998L37.5367 12.2428C36.3628 15.36 35.561 16.9541 34.4385 17.9286C33.6367 18.645 32.8349 18.9225 32.4244 18.9999L32.0139 17.6124C32.4244 17.4833 32.9632 17.2187 33.4507 16.8056C33.8997 16.4507 34.4578 15.8118 34.8298 14.9663C34.9068 14.7985 34.9581 14.663 34.9581 14.5726C34.9581 14.4823 34.9196 14.3467 34.849 14.1402L31.5136 5.76318H33.3032Z" fill="#050404"/>
</g>
<defs>
<clipPath id="clip0">
<rect width="40" height="19" fill="white"/>
</clipPath>
</defs>
</svg>
