<svg width="158" height="26" viewBox="0 0 158 26" fill="none" xmlns="http://www.w3.org/2000/svg">
<path d="M70.646 7.43612L73.9397 5.01282H62.9131V19.5289H73.9397V17.1056H66.0635V13.3993H72.7941V10.976H66.0635V7.43612H70.646Z" fill="#21A038"/>
<path d="M54.5834 10.6672H50.7647V7.43612H56.8747L60.1683 5.01282H47.6143V19.5289H54.1777C57.8532 19.5289 59.9774 17.8658 59.9774 14.9674C59.9774 12.1877 58.068 10.6672 54.5834 10.6672ZM54.0584 17.1056H50.7647V13.0905H54.0584C56.0632 13.0905 56.994 13.7557 56.994 15.1099C56.994 16.4641 55.9916 17.1056 54.0584 17.1056Z" fill="#21A038"/>
<path d="M82.8656 5.01282H76.875V19.5289H80.0255V15.4188H82.8895C86.7082 15.4188 89.0949 13.4231 89.0949 10.2158C89.0949 7.00848 86.7082 5.01282 82.8656 5.01282ZM82.794 12.9955H80.0016V7.43612H82.794C84.8227 7.43612 85.9206 8.43395 85.9206 10.2158C85.9206 11.9976 84.8227 12.9955 82.794 12.9955Z" fill="#21A038"/>
<path d="M42.2201 16.3928C41.3847 16.8442 40.4539 17.0818 39.4992 17.0818C36.659 17.0818 34.6065 15.0624 34.6065 12.2827C34.6065 9.50305 36.659 7.48363 39.4992 7.48363C40.5255 7.45988 41.5279 7.79249 42.3633 8.38643L44.6306 6.72338L44.4874 6.58084C43.1748 5.4167 41.4086 4.82275 39.4038 4.82275C37.2319 4.82275 35.2509 5.55925 33.8189 6.88969C32.3868 8.26764 31.5754 10.192 31.6231 12.1877C31.5992 14.2071 32.3868 16.1552 33.8189 17.5807C35.3225 18.9824 37.3273 19.7664 39.3799 19.7189C41.6473 19.7189 43.6282 18.9349 44.9648 17.5094L42.9361 16.0127L42.2201 16.3928Z" fill="#21A038"/>
<path d="M126.972 5.03658V19.5526H130.123V13.6132H136.829V19.5526H139.98V5.03658H136.829V10.9998H130.123V5.03658H126.972ZM121.555 19.5526H124.872L118.714 5.03658H115.516L109.239 19.5526H112.413L113.678 16.6304H120.361L121.555 19.5526ZM114.633 14.2071L117.068 8.38643L119.359 14.2071H114.633ZM147.045 13.6844H149.002L153.823 19.5289H157.88L151.436 12.0214L157.069 5.01282H153.465L148.787 11.2374H147.045V5.01282H143.894V19.5289H147.045V13.6844ZM98.8331 10.6909V7.45988H107.067V5.03658H95.6826V19.5526H102.246C105.922 19.5526 108.046 17.8896 108.046 14.9911C108.046 12.2114 106.136 10.6909 102.652 10.6909H98.8331ZM98.8331 17.1293V13.1142H102.127C104.132 13.1142 105.062 13.7795 105.062 15.1337C105.062 16.4879 104.084 17.1531 102.127 17.1531H98.8331V17.1293Z" fill="#21A038"/>
<path d="M21.7663 4.91772C22.3391 5.65422 22.8165 6.46198 23.2222 7.31727L12.1956 15.4187L7.56543 12.5202V9.05159L12.1718 11.9263L21.7663 4.91772Z" fill="#21A038"/>
<path d="M2.86374 12.2826C2.86374 12.1163 2.86374 11.9738 2.8876 11.8075L0.0951561 11.6649C0.0951561 11.855 0.0712891 12.0688 0.0712891 12.2589C0.0712891 15.585 1.43171 18.6022 3.62748 20.7879L5.60845 18.816C3.91389 17.153 2.86374 14.8485 2.86374 12.2826Z" fill="url(#paint0_linear)"/>
<path d="M12.1723 3.0171C12.3394 3.0171 12.4826 3.0171 12.6497 3.04085L12.7929 0.261185C12.6019 0.261185 12.3871 0.237427 12.1962 0.237427C8.85482 0.237427 5.8237 1.59162 3.62793 3.77735L5.6089 5.74925C7.27959 4.06244 9.61856 3.0171 12.1723 3.0171Z" fill="url(#paint1_linear)"/>
<path d="M12.1713 21.5482C12.0043 21.5482 11.8611 21.5482 11.694 21.5244L11.5508 24.3041C11.7417 24.3041 11.9565 24.3279 12.1475 24.3279C15.4888 24.3279 18.52 22.9737 20.7157 20.7879L18.7348 18.816C17.0641 20.5266 14.749 21.5482 12.1713 21.5482Z" fill="url(#paint2_linear)"/>
<path d="M17.4226 4.63271L19.7855 2.89838C17.709 1.23533 15.0598 0.213745 12.1719 0.213745V2.99341C14.129 3.01717 15.9429 3.61112 17.4226 4.63271Z" fill="url(#paint3_linear)"/>
<path d="M24.2961 12.2827C24.2961 11.5462 24.2245 10.8335 24.1052 10.1207L21.5037 12.0451C21.5037 12.1164 21.5037 12.2114 21.5037 12.2827C21.5037 15.0148 20.3103 17.4619 18.4248 19.1487L20.3103 21.2156C22.7447 19.0299 24.2961 15.8226 24.2961 12.2827Z" fill="#21A038"/>
<path d="M12.1723 21.5483C9.42755 21.5483 6.96924 20.3604 5.27468 18.4835L3.19824 20.3604C5.41788 22.8074 8.61607 24.328 12.1723 24.328V21.5483Z" fill="url(#paint4_linear)"/>
<path d="M5.94259 5.41679L4.05709 3.34985C1.59878 5.55933 0.0712891 8.74289 0.0712891 12.2828H2.86374C2.86374 9.57441 4.05709 7.10359 5.94259 5.41679Z" fill="url(#paint5_linear)"/>
<defs>
<linearGradient id="paint0_linear" x1="3.33863" y1="20.4497" x2="0.50379" y2="12.2441" gradientUnits="userSpaceOnUse">
<stop offset="0.1444" stop-color="#F2E913"/>
<stop offset="0.3037" stop-color="#E7E518"/>
<stop offset="0.5823" stop-color="#CADB26"/>
<stop offset="0.891" stop-color="#A3CD39"/>
</linearGradient>
<linearGradient id="paint1_linear" x1="4.42392" y1="3.45507" x2="11.6604" y2="0.69359" gradientUnits="userSpaceOnUse">
<stop offset="0.0592" stop-color="#0FA8E0"/>
<stop offset="0.5385" stop-color="#0099F9"/>
<stop offset="0.9234" stop-color="#0291EB"/>
</linearGradient>
<linearGradient id="paint2_linear" x1="11.3868" y1="21.9567" x2="20.0156" y2="20.0038" gradientUnits="userSpaceOnUse">
<stop offset="0.1226" stop-color="#A3CD39"/>
<stop offset="0.2846" stop-color="#86C339"/>
<stop offset="0.8693" stop-color="#21A038"/>
</linearGradient>
<linearGradient id="paint3_linear" x1="11.5981" y1="1.99223" x2="18.7724" y2="4.20886" gradientUnits="userSpaceOnUse">
<stop offset="0.0566" stop-color="#0291EB"/>
<stop offset="0.79" stop-color="#0C8ACB"/>
</linearGradient>
<linearGradient id="paint4_linear" x1="3.90826" y1="20.8119" x2="11.6104" y2="23.6936" gradientUnits="userSpaceOnUse">
<stop offset="0.1324" stop-color="#F2E913"/>
<stop offset="0.2977" stop-color="#EBE716"/>
<stop offset="0.5306" stop-color="#D9E01F"/>
<stop offset="0.8023" stop-color="#BBD62D"/>
<stop offset="0.9829" stop-color="#A3CD39"/>
</linearGradient>
<linearGradient id="paint5_linear" x1="2.19608" y1="12.6186" x2="5.26195" y2="4.63209" gradientUnits="userSpaceOnUse">
<stop offset="0.0698" stop-color="#A3CD39"/>
<stop offset="0.2599" stop-color="#81C55F"/>
<stop offset="0.9216" stop-color="#0FA8E0"/>
</linearGradient>
</defs>
</svg>
